<svg id="Capa_1" data-name="Capa 1" xmlns="http://www.w3.org/2000/svg" viewBox="0 0 620.77 576.34"><defs><style>.cls-2{letter-spacing:-.03em}.cls-3{letter-spacing:0}.cls-4{letter-spacing:-.04em}.cls-6{fill:#94dade}.cls-7{fill:#fff;font-size:11.36px}.cls-7,.cls-8{font-family:CarlaSansRegular,&apos;Carla Sans&apos;}.cls-10{fill:#c6e0d3}.cls-10,.cls-11{stroke:#bcad96;stroke-miterlimit:10}.cls-13{letter-spacing:-.04em}.cls-14{fill:#f5fdff}.cls-15{letter-spacing:0}.cls-8{font-size:8.07px}.cls-17{fill:#ddd3ca}.cls-11{fill:none}.cls-18{fill:#f7efe8}.cls-19{letter-spacing:-.03em}.cls-20{fill:#b6eef2}.cls-21{fill:#fff8f0}.cls-23{fill:#78c7c9}.cls-24{letter-spacing:-.02em}.cls-25{fill:#e8ded6}.cls-26{letter-spacing:-.04em}.cls-29,.cls-30{letter-spacing:-.03em}.cls-31{letter-spacing:-.02em}</style></defs><path class="cls-20" d="M212.7 502.66s1.32.7 5.5.02 4.39 10.44 4.39 10.44l17.18 29.35 11.32 34.35h-130.4l18.44-46.33 30.1-22.46 32.09-7.35 11.38 1.99Z"/><path d="M397.26 493.71c-3.45-1.13-12.82.51-16.38-12.89-2.56-9.65-16.12.12-25.61-2.53-6.11-1.71-12.73 10.73-19.47 13.72-5.15 2.29-15.13-9.01-16.93-13.52-1.37-3.43-4.13-1.34-9.55-11.05-1.37-2.46 1.2-7.2-4.25-10.44-6.4-3.81-13.76 5.76-27.79 2.87-7.03-1.45-9.02 8.45-23.37.64-6.63-3.61-13.72-21.87-24.83-19.35-7.14 1.62-12.67-3.72-20.21-4.49-5.73-.59-204.62-70.69-209.93-74.92v115.62l250.43 99.43 184.19-58.08-10.89-32.06c-6.95 2.83-19.51 8.97-25.41 7.04Z" style="fill:#e6d6b8"/><path class="cls-14" d="M414.38 515.19c-1.39.58-.9 2.68-1.71 2.96-.91.32-2.18-2.04-3.57-1.46-.78.33-.94 1.25-1.56 1.74-.25.2-.81.37-1 .08-.44-.65.43-1.54.1-2.32-.58-1.39-1.54-2.62-2.76-1.66-1.18.93-.6 2.36-2.26 3.77-.41.35-2.76 1.04-3.96 1.55a2.727 2.727 0 0 0-1.46 3.57c.29.68-1.34-.03-2.72.55s-2.04 2.18-1.46 3.57c.03.06.14.14.09.18-.55.55-1.52-.41-2.29-.09-1.31.55-1.61 1.5-1.95.7-.2-.48-.53-.87-.92-1.15 0-.33-.08-.65-.21-.97-.58-1.39-3.66-1.38-3.72-1.38-.85-.11-1.73-.03-2.41-.61-.32-.27-.03-.85-.2-1.26a2.727 2.727 0 0 0-3.57-1.46c-.52.22-.7.99-1.22 1.02-1.19.05-2.03-1.3-3.19-.82-.89.37-.78 1.75-1.63 2.04-1.18.41-2.87-1.87-2.46-3.5.29-1.16 1.32-2.04.83-3.2-.24-.57-1.07-.73-1.15-1.3-.15-1.04.98-1.91.55-2.94-.58-1.39-2.18-2.04-3.57-1.46s-.63 2.29-1.48 3.5c-1.02 1.46-3.72 2.77-5.53 1.19-.34-.3-.78-1.01-.97-1.46-.58-1.39-2.18-2.04-3.57-1.46s-1.19 3.82-1.25 3.95c-.24.53-1.74-.66-1.92-1.09a2.727 2.727 0 0 0-3.57-1.46c-1.12.47-1.01 1.8-1.66 2.76-.34.51-1.09.96-1.79.84-1.17-.2-2.03-1.3-3.18-.81s-.9 2.15-3.31 2.81c-1.07.29-.77 1.93-1.67 2.46-.67.4-1.53-.41-2.3-.09-1.08.45-.74 2.02-1.66 2.63-.62.41-1.48-.36-2.22-.05-.82.35-.78 1.67-1.58 1.85-1.15.25-2.03-1.28-3.17-.8-1.39.58-1.76 2.83-1.96 2.36-.58-1.39-1.52-.84-1.96-2.67-.1-.43-.04-1.34.39-2.75.37-1.21 1.49-2.09.98-3.31-.46-1.09-1.94-.81-2.66-1.66-.35-.42.08-1.11-.15-1.65a2.727 2.727 0 0 0-3.57-1.46c-.49.2-1.66 1.21-1.97.17-.37-1.15-.42-2.94-.62-4.4.91-.74 1.26-2.02.78-3.16-.18-.44-.47-.8-.81-1.08.05-.44-.01-.9-.2-1.33a2.727 2.727 0 0 0-3.57-1.46c-1.07.45-.49-.93-.82-1.67-1.25-2.78-3.93.31-4.82-.39-.75-.57-1.77-.74-2.7-.35-1.39.58-1.42 3.63-1.41 3.66-.55 1.89-7.22 3.99-8.68 2.43-1.04-1.11-2.87-2.63-3.5-1.32-.75 1.58-1.73 1.3-1.9 1.28-1.66-.22-3.11 3.31-5.03 1.65-.01-.04-.03-.08-.04-.12-1.6-3.9-3.46.2-4.41-.89-.03-.1-1.79-3.47-3.67-1.74-.29.27-.93 2.52-1.85 2.91s-.88 2.3-1.66 2.25c-.5.39-1.81-.79-2.76-.39-.74.31-.37 1.1-1.51 1.61-1.46.58-4.84-2.29-4.14-3.61.18-.59.16-1.24-.1-1.85-.15-.36-1.34-.46-.63-.92.92-.74 1.28-2.03.8-3.18-.26-.61-1.05-.78-1.25-1.36-.24-.68.32-1.43.02-2.14-.58-1.39-3.97-.07-4.64-.65-1.3-1.19.31-2.34-.08-3.28-.45-1.08-2.02-.69-2.62-1.66a2.737 2.737 0 0 0-3.4-1.13c-.74.31-.56 1.57-1.51 1.61-1.14.14-1.76-.71-2.67-.32s-1.46 1.14-1.62 2.01c-.42 1.02-2.89.95-2.91-.64.2-.6.2-1.28-.07-1.91a2.727 2.727 0 0 0-3.57-1.46c-.83.35-1.45 3.49-1.74 1.84.01-.38-.05-.77-.21-1.14-.58-1.39-3.58-.19-4.42-.89a2.718 2.718 0 0 0-3.41-1.14c-1.39.58-.42 2.74-5.02 2.11-.75-.1-.45 2.31-1.47 1.5-.76-.63-.97-.56-2.2-.59-.88-.02-1.08 1.83-1.7 1.03-.37-.43-.73-.95-1.08-1.56-.16-.28-.31-.5-.45-.66l35.35 84.11 175.28-45.66-5.25-12.49c-1.7-.69-3.89-3.95-5.02-3.47Z"/><path class="cls-20" d="M419.19 525.87c-5.83 2.79-7.67-1.48-16.9.37-3.47.7-6.89 7.49-9.09 9.89-5.83 6.37-8.48-.96-14.27-2.43-2.73-.69-10.18.93-12.84-8.85-1.91-7.05-12.79.79-20.29-.76-4.82-1-10.24 8.52-15.62 11.03-4.12 1.92-13.92 2.68-16-.46-1.12-1.7 4.1-5.57 2.73-8.83-1.04-2.49-3.26-.81-7.44-7.78-1.06-1.76 1.04-5.4-3.24-7.56-5.03-2.55-10.99 4.87-22.09 3.34-5.56-.77-10.55 9.89-21.84 4.72-5.22-2.39-7.32-18.86-16.17-16.5-5.68 1.51-10.01-2.21-15.98-2.45-3.84-.16-8.18 3.66-11.95 3.09l32.89 74.13 176.08-39.63-4.98-11.84c-1.13-.03-2.17.13-3.02.54Z"/><path class="cls-6" d="M418.12 535.47c-5.83 2.78-7.09-2.89-16.31-1.01-3.47.71-17.7 5.44-19.91 7.82-5.86 6.31.28 5.96-5.48 4.56-2.71-.66-10.16.99-12.74-8.62-1.86-6.92-12.76.87-20.23-.61-4.8-.95-10.27 8.45-15.65 10.96-4.12 1.92-13.9 2.73-15.95-.35-1.11-1.67 4.13-5.5 2.79-8.71-1.02-2.44-3.25-.78-7.36-7.6-1.04-1.73 1.08-5.31-3.18-7.42-5-2.47-10.99 4.86-22.05 3.43-5.54-.72-10.59 9.8-21.81 4.79-5.19-2.31-7.17-18.5-16.01-16.12-5.68 1.53-12.06-1.19-15.92-2.3-1.4-.4-5.68-1.18-5.72-1.18l26.77 63.7h371.4l-80.23-25.62-116.33-12.77c-2.63-.68-4.31-3.8-6.09-2.95Z"/><path class="cls-23" d="M354.44 559.61c-1.86-6.92-12.76.87-20.23-.61-4.8-.95-10.27 8.45-15.65 10.96-4.12 1.92-13.9 2.73-15.95-.35-1.11-1.67 4.13-5.5 2.79-8.71-1.02-2.44-3.25-.78-7.36-7.6-1.04-1.73 1.08-5.31-3.18-7.42-5-2.47-10.99 4.86-22.05 3.43-5.54-.72-10.59 9.8-21.81 4.79-5.19-2.31-7.17-18.5-16.01-16.12-.62.17-1.22.27-1.81.32l16.18 38.5h109.07c-1.64-1.19-3.1-13.9-3.99-17.2Z"/><path class="cls-14" d="M37.92 412.62c4.22.22-.61 2.76-.07 3.42.61.74 2.92-.62 3.81.59.5.69.16 1.56.43 2.3.11.3.5.73.82.58.71-.33.43-1.54 1.11-2.04 1.22-.89 2.67-1.45 3.22 0 .53 1.41-.7 2.34-.01 4.39.17.51 1.82 2.31 2.59 3.37a2.73 2.73 0 0 1-.59 3.81c-.59.43 1.16.66 2.05 1.88s.62 2.92-.59 3.81c-.06.04-.19.05-.17.11.19.75 1.52.44 2.01 1.11.84 1.15.61 2.12 1.31 1.61.42-.31.9-.47 1.38-.51.18-.27.4-.52.68-.73 1.22-.89 3.85.71 3.9.73.79.34 1.5.87 2.38.72.41-.07.46-.71.82-.97a2.73 2.73 0 0 1 3.81.59c.33.45.09 1.21.52 1.5.99.66 2.41-.06 3.15.94.57.78-.24 1.9.34 2.59.8.96 3.42-.12 3.92-1.73.35-1.14-.08-2.43.94-3.17.5-.36 1.29-.08 1.65-.52.66-.82.15-2.14 1.05-2.8 1.21-.89 2.92-.62 3.81.59s-.64 2.29-.54 3.76c.12 1.77 1.75 4.29 4.12 3.87.45-.08 1.19-.46 1.58-.75 1.21-.89 2.92-.62 3.81.59s-.95 3.89-.97 4.03c-.07.58 1.83.33 2.2.06a2.73 2.73 0 0 1 3.81.59c.72.98-.06 2.06 0 3.22.03.61.44 1.39 1.1 1.64 1.11.43 2.41-.06 3.15.95s-.34 2.31 1.39 4.11c.77.81-.34 2.05.16 2.97.36.69 1.52.43 2.01 1.11.69.95-.4 2.11.07 3.11.32.67 1.45.45 1.93 1.1.53.72-.2 1.83.4 2.41.86.81 2.4-.05 3.13.95.89 1.21.05 3.34.46 3.04 1.21-.89 1.73.06 3.06-1.28.31-.31.73-1.12 1.09-2.56.31-1.23-.2-2.56.87-3.34.96-.7 2.08.31 3.14-.05.52-.17.5-.99.98-1.34a2.73 2.73 0 0 1 3.81.59c.31.43.8 1.89 1.6 1.16.91-.79 1.88-2.3 2.8-3.45-.39-1.11-.03-2.38.96-3.11.38-.28.81-.44 1.25-.5a2.73 2.73 0 0 1 4.67-.45c.69.94.9-.54 1.56-1 2.51-1.74 3.2 2.29 4.33 2.15.94-.1 1.9.28 2.5 1.1.89 1.21-.65 3.85-.69 3.87-.5 1.9 4.13 7.14 6.19 6.56 1.46-.41 3.82-.77 3.68.67-.17 1.74.81 2 .97 2.07 1.54.67.96 4.44 3.46 4.01.03-.03.06-.05.1-.08 3.38-2.51 2.87 1.95 4.24 1.51.07-.07 3.33-2.05 4.04.4.11.38-.51 2.63.09 3.44s-.43 2.43.26 2.78c.23.6 1.96.26 2.57 1.09.47.65-.25 1.13.46 2.16.95 1.25 5.33.53 5.41-.96.15-.59.5-1.14 1.03-1.53.31-.23 1.38.29 1.01-.46-.41-1.11-.05-2.4.95-3.13.53-.39 1.3-.13 1.77-.52.55-.46.47-1.39 1.09-1.84 1.21-.89 3.43 1.99 4.31 1.84 1.73-.35.94-2.16 1.76-2.76.94-.69 2.09.46 3.1-.07 1.18-.64 2.68-.32 3.49.79.47.65-.33 1.64.46 2.16.91.7 1.87.3 2.46 1.1s.66 1.73.35 2.56c-.17 1.09 1.98 2.3 2.82.95.14-.62.49-1.2 1.05-1.6a2.73 2.73 0 0 1 3.81.59c.53.73-.56 3.73.54 2.48.19-.33.44-.63.77-.87 1.21-.89 3.17 1.69 4.24 1.52 1.18-.65 2.69-.34 3.51.78.89 1.21-1.05 2.57 3.21 4.4.7.3-.81 2.21.49 2.05.97-.15 1.12.03 2.19.63.76.43-.02 2.13.93 1.76.54-.18 1.11-.44 1.73-.78.28-.16-2.42 5.64-2.22 5.57l-92 63.4L-1.06 423.83v-32.11c.35.06.5 6.3 4.49 2.09s5.11 2.62 8.25 4.28c2.28 1.2 6.16-2.18 7.1 3.78s8.51 8.64 11.8 6.43 3.13 4.09 7.34 4.31Z"/><path class="cls-20" d="M28.14 419.78c3.58 5.38 7.35 2.65 14.33 8.96 2.63 2.38 2.09 9.96 2.75 13.15 1.75 8.46 7.78 3.51 13.5 5.21 2.7.8 8.27 6.01 15.56-1.04 5.25-5.08 10.59 7.23 17.83 9.72 4.66 1.61 4.44 12.55 7.78 17.47 2.55 3.75 10.59 9.43 13.98 7.78 1.84-.89-.68-6.88 2.17-8.99 2.17-1.6 3.22.97 10.37-2.88 1.81-.97 1.86-5.17 6.65-4.84 5.63.39 6.95 9.8 17.27 14.16 5.17 2.18 4.01 13.89 16.35 15.23 5.71.62 15.93-12.46 22.34-5.9 4.11 4.21 9.73 3.22 14.99 6.07 3.38 1.83 10.66 7.35 14.19 8.78l7.93 18.62-104.17 48.34L-1.06 432.93v-32.32c.99.56 28.67 18.39 29.2 19.17Z"/><path class="cls-6" d="M24.14 428.58c3.59 5.37 7.57 1.14 14.53 7.48 2.62 2.39 2.74 12.78 3.42 15.95 1.8 8.42 6.4 5.92 12.07 7.67 2.67.82 8.22 6.05 15.36-.89 5.14-4.99 10.52 7.27 17.7 9.82 4.61 1.64 4.5 12.51 7.85 17.42 2.56 3.75 10.55 9.46 13.88 7.86 1.81-.87-.73-6.84 2.06-8.91 2.13-1.57 3.19.99 10.21-2.77 1.78-.95 1.79-5.12 6.52-4.75 5.56.44 6.96 9.8 17.19 14.23 5.12 2.22 4.09 13.84 16.29 15.27 5.64.66 15.62-12.23 22.01-5.66 4.1 4.22 11.52-1.78 14.86 6.16s11.29 2.62 18.25 4.21c3.58.82 3.92-3.53 6.27 1.44s26.77 63.7 26.77 63.7H-1.06V432.93c2.61.76 24.1-5.99 25.2-4.35Z"/><path class="cls-23" d="M66.51 481.89c5.14-4.99 10.52 7.27 17.7 9.82 4.61 1.64 4.5 12.51 7.85 17.42 2.56 3.75 10.55 9.46 13.88 7.86 1.81-.87-.73-6.84 2.06-8.91 2.13-1.57 3.19.99 10.21-2.77 1.78-.95 1.79-5.12 6.52-4.75 5.56.44 6.96 9.8 17.19 14.23 5.12 2.22 4.09 13.84 16.29 15.27 5.64.66 15.62-12.23 22.01-5.66.15.15 4.77 10.18 12.48 12.17 15.59 4.04 28.69-10.01 40.49 1.72s16.18 38.5 16.18 38.5H-1.06v-91.41c2.02-.19 65.12-1.13 67.57-3.52Z"/><path d="M172.49 51.79s-17.41 43.59-13.28 68.79 13 41.48 13 41.48 12.02 20.68-6.68 24.56-14.92-36.34-14.92-36.34l-.31-120.11s.05-17.53-17.62-24.19-29.2 9.22-29.2 9.22l-20.1 30.67-51.65 135.25-4.47 10.09-7.4 176.62v7.43l66.46 53.79 139.37 59.06 10.88-10.01 163.85 31.01 14.99 36.44 62.55 14.35 62.56-8.71 80.23 25.62v-22.55l-29.72-165.3-30.26-15.58s-24.03 63.57-82.82 76.89-93.3-37.74-93.3-37.74L194.41 172.38l-18.58-39.98s8.68-15.33 22.58-1.43l-7.61-17.52-6.84-4.6-10.61-27.5 3.99-11.66-4.87-17.91Z" style="fill:#fffcf8;stroke:#bcad96;stroke-miterlimit:10"/><path d="M533.84 416s-16.68 15.77-21.26 18.88l34.81 118.49 30.34 9.69-43.9-147.07Z" style="fill:#d3c8c1"/><path d="m533.84 416 43.9 147.07 43.03 13.74v-22.55l-29.72-165.3-30.26-15.58s-11.9 25.51-26.95 42.62Z" style="fill:#dbcbbf"/><path class="cls-17" d="M512.59 434.89s-15.69 9.74-23.58 12.18l31.94 106.85 19.59-2.73 6.86 2.19-34.81-118.49Z"/><path class="cls-25" d="M489 447.07s-15.96 5.64-26.97 5.35l31.06 105.38 27.85-3.88L489 447.07Z"/><path class="cls-18" d="M462.03 452.42s-14.78 2.08-36.3-6.82l31.75 109.6 20.49 4.7 15.12-2.11-31.06-105.38Z"/><path class="cls-21" d="M425.73 445.6s-19.46-9.04-29.14-19.56l3.84 83.07 14.99 36.44 42.06 9.65-31.75-109.6ZM150.79 167.75s-.69 18.06 11.97 19.11 13.2-8.05 13.74-16.18l20.51 29.8v275.48l-110.68-46.9 64.47-261.3Z"/><path class="cls-18" d="M114.09 6.65s16.76-4.92 24.03 2.03 12.14 10.27 12.18 24.7-.16 422.72-.16 422.72l-63.83-27.05-28.47-23.04L114.09 6.65Z"/><path class="cls-25" d="m114.09 6.65-1.04 433.73-26.73-11.33-66.46-53.79 31.16-216.23 11.67-58.99 20.69-54.18s17.93-33.9 30.71-39.21Z"/><path class="cls-17" d="M62.69 100.05v308.58l-42.83-33.36 6.56-181.47 36.27-93.75z"/><path class="cls-11" d="M120.3 18.53v70.86l21.23 5.76V23.92l-21.23-5.39zM120.3 97.54v93.75l21.23 5.79v-93.74l-21.23-5.8zM120.3 30.49l21.23 5.79M120.3 42.13l21.23 5.8M120.3 53.78l21.23 5.79M120.3 65.64l21.23 5.79M120.3 77.28l21.23 5.8M120.3 109.34l21.23 5.79M120.3 120.99l21.23 5.79M120.3 132.63l21.23 5.79M120.3 144.49l21.23 5.79M120.3 156.14l21.23 5.79M120.3 167.78l21.23 5.8M120.3 179.64l21.23 5.8M120.3 200.48v58.77l21.23 5.76v-59.14l-21.23-5.39zM120.3 212.44l21.23 5.79M120.3 224.09l21.23 5.79M120.3 235.73l21.23 5.79M120.3 247.59l21.23 5.79M76.98 255.35v100.21l21.22 6.2V261.54l-21.22-6.19zM76.37 265.85l21.23 5.79M76.98 305.65l21.22 5.8M76.98 315.31l21.22 5.79M76.98 325.73l21.22 5.79M76.98 335.32l21.22 5.79M76.98 345.05l21.22 5.8M76.98 276.1l21.22 5.79M76.98 285.75l21.22 5.8M76.98 296.18l21.22 5.79M100.69 41.33l-7.82 10.38v81.95l21.22 7.6V44.59l-13.4-3.26zM92.87 52.12l21.22 5.79M92.87 63.76l21.22 5.79M92.87 75.41l21.22 5.79M92.87 87.26l21.22 5.8M92.87 98.91l21.22 5.79M92.87 110.56l21.22 5.79M92.87 122.21l21.22 5.79M120.6 267.17v100.22l21.23 6.19V273.36l-21.23-6.19zM120 277.67l21.22 5.79M120.6 317.48l21.23 5.79M120.6 327.13l21.23 5.79M120.6 337.55l21.23 5.8M120.6 347.14l21.23 5.8M120.6 356.88l21.23 5.79M120.6 287.93l21.23 5.79M120.6 297.58l21.23 5.79M120.6 308l21.23 5.79M162.76 278.48V378.7l21.22 6.19V284.67l-21.22-6.19zM162.16 288.98l21.22 5.79M162.76 328.79l21.22 5.79M162.76 338.44l21.22 5.79M162.76 348.86l21.22 5.8M162.76 358.45l21.22 5.8M162.76 368.19l21.22 5.79M162.76 299.24l21.22 5.79M162.76 308.89l21.22 5.79M162.76 319.31l21.22 5.79M163.78 212.17v58.78L185 276.7v-59.13l-21.22-5.4zM163.78 224.13l21.22 5.8M163.78 235.78l21.22 5.79M163.78 247.42l21.22 5.8M163.78 259.28l21.22 5.8M206.71 295.46v94.17l21.22 4.9v-94.74l-21.22-4.33zM206.71 307.43l21.22 5.79M206.71 319.07l21.22 5.79M206.71 330.72l21.22 5.79M206.71 342.58l21.22 5.79M206.71 354.44l21.22 5.79M206.71 366.29l21.22 5.8M206.71 378.15l21.22 5.8M206.71 397.68v69.23l21.22 6.19v-69.71l-21.22-5.71zM206.71 409.64l21.22 5.79M206.71 421.28l21.22 5.8M206.71 432.93l21.22 5.79M206.71 444.79l21.22 5.79M206.71 456.65l21.22 5.79M163.78 385.17v57.49l21.22 6.19v-57.97l-21.22-5.71zM163.78 396.81 185 402.6M163.78 406.42l21.22 5.79M163.78 417.01 185 422.8M163.78 429.95l21.22 5.79M120.6 374.43v57.49l21.23 6.19v-57.97l-21.23-5.71zM120.6 386.07l21.23 5.79M120.6 395.68l21.23 5.79M120.6 406.27l21.23 5.79M120.6 419.21l21.23 5.79M76.98 363.72v46.45l21.22 5v-46.83l-21.22-4.62zM76.98 373.12l21.22 5.79M76.98 383.77l21.22 5.79M76.98 396.81l21.22 5.79M31.73 181.12l15.64-8.73 5.69 10.15-25.8 14.54v-5.87l4.47-10.09z"/><path class="cls-11" d="m45.84 186.61 5.19 9.34-24.61 14.37.57-13.24 18.85-10.47z"/><path class="cls-11" d="m45.34 199.71 5.19 9.34-24.61 14.37.57-13.24 18.85-10.47z"/><path class="cls-11" d="m44.74 212.95 5.19 9.34-24.61 14.37.58-13.23 18.84-10.48z"/><path class="cls-11" d="m44.24 226.05 5.19 9.34-24.61 14.37.58-13.23 18.84-10.48zM43.68 239.29l5.19 9.34L24.26 263l.57-13.24 18.85-10.47z"/><path class="cls-11" d="m43.18 252.39 5.19 9.34-24.61 14.37.57-13.24 18.85-10.47z"/><path class="cls-11" d="m42.63 265.23 5.19 9.34-24.61 14.37.58-13.24 18.84-10.47z"/><path class="cls-11" d="m40.38 279.42 5.19 9.33-22.86 13.29.58-13.24 17.09-9.38z"/><path class="cls-11" d="m41.51 291.58 5.19 9.34-24.61 14.37.57-13.24 18.85-10.47z"/><path class="cls-11" d="m39.25 305.77 5.19 9.34-22.86 13.28.58-13.24 17.09-9.38z"/><path class="cls-11" d="m40.38 317.86 5.19 9.34-24.61 14.37.57-13.23 18.85-10.48z"/><path class="cls-11" d="m38.12 332.05 5.19 9.34-22.85 13.28.57-13.23 17.09-9.39z"/><path class="cls-11" d="m37.53 345.21 5.19 9.34-22.86 13.28.58-13.23 17.09-9.39z"/><path class="cls-10" d="m89.49 140.81 13.18 3.49v111.05l-25.69-6.73v-95.27l12.51-12.54z"/><path class="cls-11" d="m102.67 144.3 12.48 3.01v43.9l-12.48-3.06V144.3zM102.67 194.6l12.48 4.18v60.28l-12.48-3.75V194.6z"/><path class="cls-10" d="m216.05 231.4-9.34 7.23v42.26l43.14 8.9 30.9 40.24v58.93l67.15 13.36L216.05 231.4z"/><path class="cls-11" d="m236.94 330.34 32.35 6.33.25-18.87-32.82-6.42.22 18.96zM247.82 313.74l.21 18.96M258.54 315.55l.22 18.96M236.57 354.06l44.26 8.11-.08-18.93-44.39-8.14.21 18.96zM247.46 337.46l.21 18.95M258.18 339.27l.22 18.96M269.44 341.43l.21 18.96M236.57 378.42l44.26 8.1-.08-18.93-44.39-8.13.21 18.96zM247.46 361.81l.21 18.96M258.18 363.63l.22 18.95M269.44 365.79l.21 18.95M236.57 402.23l44.26 8.11-.08-18.93-44.39-8.13.21 18.95zM247.46 385.63l.21 18.96M258.18 387.44l.22 18.96M269.44 389.6l.21 18.96M236.57 427.28l41.32 7.57-.09-20.5-41.44-7.59.21 20.52zM250.28 409.11l.21 20.53M263.81 411.9l.21 20.53M236.57 452.87l41.32 7.57-.09-20.5-41.44-7.6.21 20.53zM250.28 434.7l.21 20.52M263.81 437.49l.21 20.52M236.57 478.1l41.32 7.57-.09-20.5-41.44-7.6.21 20.53zM250.28 459.93l.21 20.52M263.81 462.72l.21 20.53M283.44 435.82l54.45 10.57-.09-20.5-54.57-10.6.21 20.53zM297.14 417.65l.22 20.52M310.68 420.44l.21 20.53M324.08 423.33l.21 20.52M283.44 461.63l54.45 10.57-.09-20.49-54.57-10.6.21 20.52zM297.14 443.46l.22 20.53M310.68 446.25l.21 20.53M324.08 449.14l.21 20.53M283.44 486.64l54.45 10.57-.09-20.5-54.57-10.6.21 20.53zM297.14 468.46l.22 20.53M310.68 471.26l.21 20.52M324.08 474.15l.21 20.52M283.44 410.23l58.41 11.34-.09-20.5-58.53-11.36.21 20.52zM296.6 392.06l.22 20.53M319.04 396.49l.21 20.53M330.3 399.05l.21 20.53M307.62 394.27l.22 20.52M343.36 472.59l41.31 7.57-.08-20.5-41.45-7.6.22 20.53zM357.06 454.42l.22 20.52M370.59 457.21l.22 20.52M343.36 447.76l27.45 5.15-.09-20.5-27.58-5.17.22 20.52zM357.06 429.59l.22 20.53M343.36 498.3l41.31 7.57-.08-20.5-41.45-7.6.22 20.53zM357.06 480.12l.22 20.53M370.59 482.92l.22 20.52M236.95 306.77l20.19 3.64 1.76-8.82-4.22-5.5-17.96-3.32.23 14z"/><text class="cls-8" transform="translate(129.36 30.16)"><tspan x="0" y="0">1</tspan></text><text class="cls-8" transform="translate(128.35 41.94)"><tspan x="0" y="0">2</tspan></text><text class="cls-8" transform="translate(128.59 53.78)"><tspan x="0" y="0">3</tspan></text><text class="cls-8" transform="translate(128.38 65.56)"><tspan x="0" y="0">4</tspan></text><text class="cls-8" transform="translate(128.53 77.51)"><tspan x="0" y="0">5</tspan></text><text class="cls-8" transform="translate(128.55 89.28)"><tspan x="0" y="0">6</tspan></text><text class="cls-8" transform="translate(128.78 108.85)"><tspan x="0" y="0">7</tspan></text><text class="cls-8" transform="translate(128.5 120.63)"><tspan x="0" y="0">8</tspan></text><text class="cls-8" transform="translate(128.48 132.47)"><tspan x="0" y="0">9</tspan></text><text class="cls-8" transform="translate(126.42 144.25)"><tspan x="0" y="0">10</tspan></text><text class="cls-8" transform="translate(127.8 156.2)"><tspan x="0" y="0">11</tspan></text><text class="cls-8" transform="translate(126.79 167.98)"><tspan x="0" y="0">12</tspan></text><text class="cls-8" transform="translate(127.03 179.43)"><tspan x="0" y="0">13</tspan></text><text class="cls-8" transform="translate(126.82 191.21)"><tspan x="0" y="0">14</tspan></text><text class="cls-8" transform="translate(126.97 212.11)"><tspan x="0" y="0">15</tspan></text><text class="cls-8" transform="translate(126.99 223.89)"><tspan x="0" y="0">16</tspan></text><text class="cls-8" transform="translate(127.23 235.73)"><tspan x="0" y="0">17</tspan></text><text class="cls-8" transform="translate(126.95 247.51)"><tspan x="0" y="0">18</tspan></text><text class="cls-8" transform="translate(126.92 259.46)"><tspan x="0" y="0">19</tspan></text><text class="cls-8" transform="translate(86.03 266.66)"><tspan x="0" y="0">1</tspan></text><text class="cls-8" transform="translate(85.03 276.93)"><tspan x="0" y="0">2</tspan></text><text class="cls-8" transform="translate(85.27 286.85)"><tspan x="0" y="0">3</tspan></text><text class="cls-8" transform="translate(85.06 296.79)"><tspan x="0" y="0">4</tspan></text><text class="cls-8" transform="translate(85.21 306.75)"><tspan x="0" y="0">5</tspan></text><text class="cls-8" transform="translate(85.23 315.91)"><tspan x="0" y="0">6</tspan></text><text class="cls-8" transform="translate(85.46 326.23)"><tspan x="0" y="0">7</tspan></text><text class="cls-8" transform="translate(85.18 336.33)"><tspan x="0" y="0">8</tspan></text><text class="cls-8" transform="translate(85.16 345.98)"><tspan x="0" y="0">9</tspan></text><text class="cls-8" transform="translate(83.09 356.08)"><tspan x="0" y="0">10</tspan></text><text class="cls-8" transform="translate(101.92 51.79)"><tspan x="0" y="0">1</tspan></text><text class="cls-8" transform="translate(100.92 63.57)"><tspan x="0" y="0">2</tspan></text><text class="cls-8" transform="translate(101.16 75.41)"><tspan x="0" y="0">3</tspan></text><text class="cls-8" transform="translate(100.95 87.18)"><tspan x="0" y="0">4</tspan></text><text class="cls-8" transform="translate(101.1 99.13)"><tspan x="0" y="0">5</tspan></text><text class="cls-8" transform="translate(101.12 110.91)"><tspan x="0" y="0">6</tspan></text><text class="cls-8" transform="translate(101.1 122.15)"><tspan x="0" y="0">5</tspan></text><text class="cls-8" transform="translate(101.12 133.93)"><tspan x="0" y="0">6</tspan></text><text class="cls-8" transform="translate(125.81 278.48)"><tspan class="cls-24" x="0" y="0">2</tspan><tspan x="4.94" y="0">0</tspan></text><text class="cls-8" transform="translate(127.18 288.75)"><tspan class="cls-31" x="0" y="0">2</tspan><tspan x="4.95" y="0">1</tspan></text><text class="cls-8" transform="translate(126.09 298.67)"><tspan x="0" y="0">22</tspan></text><text class="cls-8" transform="translate(126.45 308.61)"><tspan class="cls-29" x="0" y="0">2</tspan><tspan x="4.88" y="0">3</tspan></text><text class="cls-8" transform="translate(126.3 318.57)"><tspan class="cls-4" x="0" y="0">2</tspan><tspan x="4.77" y="0">4</tspan></text><text class="cls-8" transform="translate(126.41 327.73)"><tspan class="cls-26" x="0" y="0">2</tspan><tspan x="4.83" y="0">5</tspan></text><text class="cls-8" transform="translate(126.44 338.05)"><tspan class="cls-13" x="0" y="0">2</tspan><tspan x="4.82" y="0">6</tspan></text><text class="cls-8" transform="translate(126.65 348.15)"><tspan class="cls-2" x="0" y="0">2</tspan><tspan x="4.87" y="0">7</tspan></text><text class="cls-8" transform="translate(126.35 357.8)"><tspan class="cls-30" x="0" y="0">2</tspan><tspan x="4.92" y="0">8</tspan></text><text class="cls-8" transform="translate(126.24 367.9)"><tspan class="cls-3" x="0" y="0">2</tspan><tspan class="cls-15" x="5.08" y="0">9</tspan></text><text class="cls-8" transform="translate(171.01 289.79)"><tspan x="0" y="0">6</tspan></text><text class="cls-8" transform="translate(171.24 300.06)"><tspan x="0" y="0">7</tspan></text><text class="cls-8" transform="translate(170.96 309.98)"><tspan x="0" y="0">8</tspan></text><text class="cls-8" transform="translate(170.94 319.92)"><tspan x="0" y="0">9</tspan></text><text class="cls-8" transform="translate(168.88 329.88)"><tspan x="0" y="0">10</tspan></text><text class="cls-8" transform="translate(170.26 339.04)"><tspan x="0" y="0">11</tspan></text><text class="cls-8" transform="translate(169.25 349.36)"><tspan x="0" y="0">12</tspan></text><text class="cls-8" transform="translate(169.49 359.46)"><tspan x="0" y="0">13</tspan></text><text class="cls-8" transform="translate(169.28 369.11)"><tspan x="0" y="0">14</tspan></text><text class="cls-8" transform="translate(169.43 379.21)"><tspan x="0" y="0">15</tspan></text><text class="cls-8" transform="translate(172.83 223.81)"><tspan x="0" y="0">1</tspan></text><text class="cls-8" transform="translate(171.83 235.59)"><tspan x="0" y="0">2</tspan></text><text class="cls-8" transform="translate(172.06 247.42)"><tspan x="0" y="0">3</tspan></text><text class="cls-8" transform="translate(171.85 259.2)"><tspan x="0" y="0">4</tspan></text><text class="cls-8" transform="translate(172 271.15)"><tspan x="0" y="0">5</tspan></text><text class="cls-8" transform="translate(215.76 307.1)"><tspan x="0" y="0">1</tspan></text><text class="cls-8" transform="translate(214.76 318.88)"><tspan x="0" y="0">2</tspan></text><text class="cls-8" transform="translate(215 330.72)"><tspan x="0" y="0">3</tspan></text><text class="cls-8" transform="translate(214.79 342.49)"><tspan x="0" y="0">4</tspan></text><text class="cls-8" transform="translate(214.94 354.44)"><tspan x="0" y="0">5</tspan></text><text class="cls-8" transform="translate(214.96 366.21)"><tspan x="0" y="0">6</tspan></text><text class="cls-8" transform="translate(215.19 378.16)"><tspan x="0" y="0">7</tspan></text><text class="cls-8" transform="translate(214.91 389.93)"><tspan x="0" y="0">8</tspan></text><text class="cls-8" transform="translate(214.89 409.31)"><tspan x="0" y="0">9</tspan></text><text class="cls-8" transform="translate(212.83 421.09)"><tspan x="0" y="0">10</tspan></text><text class="cls-8" transform="translate(214.21 432.93)"><tspan x="0" y="0">11</tspan></text><text class="cls-8" transform="translate(213.2 444.71)"><tspan x="0" y="0">12</tspan></text><text class="cls-8" transform="translate(213.44 456.66)"><tspan x="0" y="0">13</tspan></text><text class="cls-8" transform="translate(213.23 468.42)"><tspan x="0" y="0">14</tspan></text><text class="cls-8" transform="translate(170.47 396.81)"><tspan x="0" y="0">16</tspan></text><text class="cls-8" transform="translate(170.7 407.3)"><tspan x="0" y="0">17</tspan></text><text class="cls-8" transform="translate(170.42 417.01)"><tspan x="0" y="0">18</tspan></text><text class="cls-8" transform="translate(170.4 429.03)"><tspan x="0" y="0">19</tspan></text><text class="cls-8" transform="translate(168.98 441.28)"><tspan class="cls-24" x="0" y="0">2</tspan><tspan x="4.94" y="0">0</tspan></text><text class="cls-8" transform="translate(126.05 386.07)"><tspan x="0" y="0" style="letter-spacing:-.02em">3</tspan><tspan x="4.45" y="0">0</tspan></text><text class="cls-8" transform="translate(127.44 396.56)"><tspan class="cls-19" x="0" y="0">3</tspan><tspan x="4.43" y="0">1</tspan></text><text class="cls-8" transform="translate(126.44 406.27)"><tspan class="cls-19" x="0" y="0">3</tspan><tspan x="4.43" y="0">2</tspan></text><text class="cls-8" transform="translate(126.57 418.29)"><tspan x="0" y="0">33</tspan></text><text class="cls-8" transform="translate(126.42 430.54)"><tspan x="0" y="0" style="letter-spacing:-.02em">3</tspan><tspan x="4.53" y="0">4</tspan></text><text class="cls-8" transform="translate(84.47 373.58)"><tspan x="0" y="0">11</tspan></text><text class="cls-8" transform="translate(83.47 384.11)"><tspan x="0" y="0">12</tspan></text><text class="cls-8" transform="translate(83.71 395.56)"><tspan x="0" y="0">13</tspan></text><text class="cls-8" transform="translate(83.5 409.17)"><tspan x="0" y="0">14</tspan></text><text class="cls-8" transform="translate(37.14 186.61)"><tspan x="0" y="0">1</tspan></text><text class="cls-8" transform="translate(35.66 200.48)"><tspan x="0" y="0">2</tspan></text><text class="cls-8" transform="translate(35.94 212.95)"><tspan x="0" y="0">3</tspan></text><text class="cls-8" transform="translate(35.26 225.83)"><tspan x="0" y="0">4</tspan></text><text class="cls-8" transform="translate(34.4 239.29)"><tspan x="0" y="0">5</tspan></text><text class="cls-8" transform="translate(33.51 253.37)"><tspan x="0" y="0">6</tspan></text><text class="cls-8" transform="translate(32.75 266.58)"><tspan x="0" y="0">7</tspan></text><text class="cls-8" transform="translate(31.73 279)"><tspan x="0" y="0">8</tspan></text><text class="cls-8" transform="translate(30.58 292.77)"><tspan x="0" y="0">9</tspan></text><text class="cls-8" transform="translate(28.52 305.77)"><tspan x="0" y="0">10</tspan></text><text class="cls-8" transform="translate(29.27 318.88)"><tspan x="0" y="0">11</tspan></text><text class="cls-8" transform="translate(27.76 331.69)"><tspan x="0" y="0">12</tspan></text><text class="cls-8" transform="translate(27.41 345)"><tspan x="0" y="0">13</tspan></text><text class="cls-8" transform="translate(26.09 358.46)"><tspan x="0" y="0">14</tspan></text><text class="cls-8" transform="translate(239.25 323.96)"><tspan x="0" y="0">2</tspan></text><text class="cls-8" transform="translate(250.81 326.23)"><tspan x="0" y="0">3</tspan></text><text class="cls-8" transform="translate(261.42 327.73)"><tspan x="0" y="0">4</tspan></text><text class="cls-8" transform="translate(239.42 347.48)"><tspan x="0" y="0">5</tspan></text><text class="cls-8" transform="translate(250.77 349.75)"><tspan x="0" y="0">6</tspan></text><text class="cls-8" transform="translate(261.45 351.63)"><tspan x="0" y="0">7</tspan></text><text class="cls-8" transform="translate(272.17 353.5)"><tspan x="0" y="0">8</tspan></text><text class="cls-8" transform="translate(239.37 371.86)"><tspan x="0" y="0">9</tspan></text><text class="cls-8" transform="translate(248.64 374.13)"><tspan x="0" y="0">10</tspan></text><text class="cls-8" transform="translate(260.46 376.01)"><tspan x="0" y="0">11</tspan></text><text class="cls-8" transform="translate(270.46 377.88)"><tspan x="0" y="0">12</tspan></text><text class="cls-8" transform="translate(237.93 396.07)"><tspan x="0" y="0">13</tspan></text><text class="cls-8" transform="translate(249.04 398.33)"><tspan x="0" y="0">14</tspan></text><text class="cls-8" transform="translate(259.63 400.22)"><tspan x="0" y="0">15</tspan></text><text class="cls-8" transform="translate(270.66 402.09)"><tspan x="0" y="0">16</tspan></text><text class="cls-8" transform="translate(286.94 403.74)"><tspan x="0" y="0">17</tspan></text><text class="cls-8" transform="translate(297.99 406.01)"><tspan x="0" y="0">18</tspan></text><text class="cls-8" transform="translate(310.23 408.63)"><tspan x="0" y="0">19</tspan></text><text class="cls-8" transform="translate(319.54 410.28)"><tspan class="cls-24" x="0" y="0">2</tspan><tspan x="4.94" y="0">0</tspan></text><text class="cls-8" transform="translate(332.2 412.54)"><tspan class="cls-31" x="0" y="0">2</tspan><tspan x="4.95" y="0">1</tspan></text><text class="cls-8" transform="translate(246.01 304.02)"><tspan x="0" y="0">1</tspan></text><text class="cls-8" transform="translate(242.42 420.95)"><tspan x="0" y="0">1</tspan></text><text class="cls-8" transform="translate(254.23 423.22)"><tspan x="0" y="0">2</tspan></text><text class="cls-8" transform="translate(268.42 426.04)"><tspan x="0" y="0">3</tspan></text><text class="cls-8" transform="translate(239.48 446.3)"><tspan x="0" y="0">10</tspan></text><text class="cls-8" transform="translate(253.68 448.58)"><tspan x="0" y="0">11</tspan></text><text class="cls-8" transform="translate(266.63 451.39)"><tspan x="0" y="0">12</tspan></text><text class="cls-8" transform="translate(238.57 472.2)"><tspan class="cls-24" x="0" y="0">2</tspan><tspan x="4.94" y="0">0</tspan></text><text class="cls-8" transform="translate(252.76 474.48)"><tspan class="cls-31" x="0" y="0">2</tspan><tspan x="4.95" y="0">1</tspan></text><text class="cls-8" transform="translate(265.62 477.29)"><tspan x="0" y="0">22</tspan></text><text class="cls-8" transform="translate(287.66 429.8)"><tspan x="0" y="0">4</tspan></text><text class="cls-8" transform="translate(300.63 432.07)"><tspan x="0" y="0">5</tspan></text><text class="cls-8" transform="translate(314.6 434.89)"><tspan x="0" y="0">6</tspan></text><text class="cls-8" transform="translate(328.27 437.3)"><tspan x="0" y="0">7</tspan></text><text class="cls-8" transform="translate(347.85 441.53)"><tspan x="0" y="0">8</tspan></text><text class="cls-8" transform="translate(361.47 443.87)"><tspan x="0" y="0">9</tspan></text><text class="cls-8" transform="translate(286.32 453.82)"><tspan x="0" y="0">13</tspan></text><text class="cls-8" transform="translate(298.92 456.1)"><tspan x="0" y="0">14</tspan></text><text class="cls-8" transform="translate(313.03 458.92)"><tspan x="0" y="0">15</tspan></text><text class="cls-8" transform="translate(326.48 461.33)"><tspan x="0" y="0">16</tspan></text><text class="cls-8" transform="translate(346.57 466.31)"><tspan x="0" y="0">17</tspan></text><text class="cls-8" transform="translate(359.94 468.64)"><tspan x="0" y="0">18</tspan></text><text class="cls-8" transform="translate(373.14 471.34)"><tspan x="0" y="0">19</tspan></text><text class="cls-8" transform="translate(285.43 480.11)"><tspan class="cls-29" x="0" y="0">2</tspan><tspan x="4.88" y="0">3</tspan></text><text class="cls-8" transform="translate(299.1 483.21)"><tspan class="cls-4" x="0" y="0">2</tspan><tspan x="4.77" y="0">4</tspan></text><text class="cls-8" transform="translate(312.94 485.2)"><tspan class="cls-26" x="0" y="0">2</tspan><tspan x="4.83" y="0">5</tspan></text><text class="cls-8" transform="translate(326.25 488.11)"><tspan class="cls-13" x="0" y="0">2</tspan><tspan x="4.82" y="0">6</tspan></text><text class="cls-8" transform="translate(345.83 491.82)"><tspan class="cls-2" x="0" y="0">2</tspan><tspan x="4.87" y="0">7</tspan></text><text class="cls-8" transform="translate(358.76 495.09)"><tspan class="cls-30" x="0" y="0">2</tspan><tspan x="4.92" y="0">8</tspan></text><text class="cls-8" transform="translate(372.44 496.72)"><tspan class="cls-3" x="0" y="0">2</tspan><tspan class="cls-15" x="5.08" y="0">9</tspan></text><path class="cls-11" d="m542.71 436.5 19.83-5.96 32.37 107.45-19.95 5.65-32.25-107.14zM566.56 443.87l-19.85 5.93M570.42 456.77l-19.84 5.94M574.28 469.67l-19.84 5.94M577.71 481.13l-19.84 5.94M580.75 492.6l-19.84 5.93M584.18 504.06 564.34 510M587.81 514.87l-19.84 5.94M591.26 526.41l-19.84 5.93M520.95 453.82l18.13-11.66 25.39 84.97-19.95 5.65-23.57-78.96zM543.76 457.73l-19.84 5.94M547.57 470.44l-19.85 5.94M555.19 495.26l-19.84 5.94M558.33 506.41l-19.84 5.94M561.62 517.41l-19.84 5.94M551.78 483.8l-19.84 5.94M402.53 466.16l9.03-5.47 12.41 4.73 19.54 64.33-19.95 5.64-21.03-69.23zM425.34 470.07 405.5 476M428.72 481.37l-19.84 5.93M435.52 504.06 415.67 510M439.66 516.9l-19.85 5.94M431.53 490.74l-19.84 5.94M436.99 468.64l22.42 2.63 18.56 61.93-19.95 5.65-21.03-70.21zM462.34 480.99l-19.85 5.94M466.82 493.39l-19.84 5.94M473.91 519.66l-19.84 5.94M470.33 506.72l-19.84 5.94M472.21 471.25l20.17-4.94 18.03 59.22-19.95 5.65-18.25-59.93zM495.02 475.15l-19.84 5.94M498.07 485.34l-19.84 5.93M503.97 504.06 484.13 510M506.8 513.53l-19.84 5.94M500.8 494.48l-19.84 5.93M496.92 463.86l20.17-4.94 19.92 66.02-19.95 5.65-20.14-66.73zM519.73 467.76l-19.84 5.94M522.78 477.42l-19.84 5.94M528.68 496.67l-19.84 5.94M531.52 506.14l-19.85 5.94M525.52 487.09l-19.84 5.93M534.35 515.61l-19.84 5.94"/><text class="cls-8" transform="translate(553.64 441.76)"><tspan x="0" y="0">1</tspan></text><text class="cls-8" transform="translate(556.14 455.05)"><tspan x="0" y="0">2</tspan></text><text class="cls-8" transform="translate(560.59 468.42)"><tspan x="0" y="0">3</tspan></text><text class="cls-8" transform="translate(563.92 480.95)"><tspan x="0" y="0">4</tspan></text><text class="cls-8" transform="translate(567.55 492.6)"><tspan x="0" y="0">5</tspan></text><text class="cls-8" transform="translate(570.58 503.14)"><tspan x="0" y="0">6</tspan></text><text class="cls-8" transform="translate(573.78 515.52)"><tspan x="0" y="0">7</tspan></text><text class="cls-8" transform="translate(577.43 525.69)"><tspan x="0" y="0">8</tspan></text><text class="cls-8" transform="translate(581.32 537.44)"><tspan x="0" y="0">9</tspan></text><text class="cls-8" transform="translate(530.79 457.81)"><tspan x="0" y="0">1</tspan></text><text class="cls-8" transform="translate(533.1 468.64)"><tspan x="0" y="0">2</tspan></text><text class="cls-8" transform="translate(537.01 483.21)"><tspan x="0" y="0">3</tspan></text><text class="cls-8" transform="translate(540.17 495.57)"><tspan x="0" y="0">4</tspan></text><text class="cls-8" transform="translate(543.86 507.03)"><tspan x="0" y="0">5</tspan></text><text class="cls-8" transform="translate(546.9 517.84)"><tspan x="0" y="0">6</tspan></text><text class="cls-8" transform="translate(550.54 528.46)"><tspan x="0" y="0">7</tspan></text><text class="cls-8" transform="translate(412.37 470.14)"><tspan x="0" y="0">1</tspan></text><text class="cls-8" transform="translate(414.68 480.97)"><tspan x="0" y="0">2</tspan></text><text class="cls-8" transform="translate(417.83 491.82)"><tspan x="0" y="0">3</tspan></text><text class="cls-8" transform="translate(420.84 503.14)"><tspan x="0" y="0">4</tspan></text><text class="cls-8" transform="translate(425.26 516.44)"><tspan x="0" y="0">5</tspan></text><text class="cls-8" transform="translate(428.84 529.12)"><tspan x="0" y="0">6</tspan></text><text class="cls-8" transform="translate(449.36 481.06)"><tspan x="0" y="0">1</tspan></text><text class="cls-8" transform="translate(451.67 491.9)"><tspan x="0" y="0">2</tspan></text><text class="cls-8" transform="translate(455.87 504.99)"><tspan x="0" y="0">3</tspan></text><text class="cls-8" transform="translate(459.02 517.84)"><tspan x="0" y="0">4</tspan></text><text class="cls-8" transform="translate(464.16 531.56)"><tspan x="0" y="0">5</tspan></text><text class="cls-8" transform="translate(482.22 476.46)"><tspan x="0" y="0">1</tspan></text><text class="cls-8" transform="translate(484.36 486.06)"><tspan x="0" y="0">2</tspan></text><text class="cls-8" transform="translate(487.11 496.36)"><tspan x="0" y="0">3</tspan></text><text class="cls-8" transform="translate(489.07 505)"><tspan x="0" y="0">4</tspan></text><text class="cls-8" transform="translate(492.62 515.41)"><tspan x="0" y="0">5</tspan></text><text class="cls-8" transform="translate(495.93 525.64)"><tspan x="0" y="0">6</tspan></text><text class="cls-8" transform="translate(506.94 469.07)"><tspan x="0" y="0">1</tspan></text><text class="cls-8" transform="translate(509.07 478.67)"><tspan x="0" y="0">2</tspan></text><text class="cls-8" transform="translate(511.82 488.97)"><tspan x="0" y="0">3</tspan></text><text class="cls-8" transform="translate(513.78 497.61)"><tspan x="0" y="0">4</tspan></text><text class="cls-8" transform="translate(517.34 508.02)"><tspan x="0" y="0">5</tspan></text><text class="cls-8" transform="translate(520.02 516.5)"><tspan x="0" y="0">6</tspan></text><text class="cls-8" transform="translate(523.36 526.69)"><tspan x="0" y="0">7</tspan></text><path class="cls-11" d="M168.85 27.1s8.6 61.23 29.58 103.88l195.38 250.07s18.23 31.48 69.83 31.48 82.61-78.92 82.61-78.92 11.26-31.48 22.6-40.2l-.64-.65-9.51-8.81-13.88 21.81s-34.05 92.71-80.84 91.91-64.67-31.46-64.67-31.46L210.47 125.1s-16.51-29.76-27.86-100.86"/><text transform="rotate(51.93 -82.104 410.154)" style="font-size:11px;font-family:CarlaSansRegular,'Carla Sans'"><tspan x="0" y="0">Carretera </tspan><tspan x="71.47" y="0" style="letter-spacing:-.06em">c</tspan><tspan x="78.24" y="0">o</tspan><tspan x="87.26" y="0" style="letter-spacing:-.03em">s</tspan><tspan x="93.97" y="0" style="letter-spacing:-.1em">t</tspan><tspan x="99.8" y="0">anera</tspan></text><path class="cls-11" d="M172.49 51.79s-17.41 43.59-13.28 68.79 13 41.48 13 41.48 12.02 20.68-6.68 24.56-14.92-36.34-14.92-36.34l-.31-120.11s.05-17.53-17.62-24.19-29.2 9.22-29.2 9.22l-20.1 30.67-51.65 135.25-4.47 10.09-7.4 176.62v7.43l66.46 53.79 139.37 59.06 10.88-10.01 163.85 31.01 14.99 36.44 62.55 14.35 62.56-8.71 80.23 25.62v-22.55l-29.72-165.3-30.26-15.58s-24.03 63.57-82.82 76.89-93.3-37.74-93.3-37.74L194.41 172.38l-18.58-39.98s8.68-15.33 22.58-1.43l-7.61-17.52-6.84-4.6-10.61-27.5 3.99-11.66-4.87-17.91Z"/><circle cx="40.31" cy="156.2" r="10.87"/><text class="cls-7" transform="translate(36.34 159.86)"><tspan x="0" y="0">A</tspan></text><circle cx="71.86" cy="261.38" r="10.87"/><text class="cls-7" transform="translate(67.76 265.04)"><tspan x="0" y="0">B</tspan></text><circle cx="90.92" cy="40.03" r="10.87"/><text class="cls-7" transform="translate(87.07 43.7)"><tspan x="0" y="0">C</tspan></text><circle cx="146.18" cy="24.24" r="10.87"/><text class="cls-7" transform="translate(142.02 27.9)"><tspan x="0" y="0">D</tspan></text><circle cx="176.84" cy="206.19" r="10.87"/><text class="cls-7" transform="translate(173.41 209.86)"><tspan x="0" y="0">E</tspan></text><circle cx="219.44" cy="288.49" r="10.87"/><text class="cls-7" transform="translate(216.08 292.16)"><tspan x="0" y="0">F</tspan></text><circle cx="261.64" cy="290.57" r="10.87"/><text class="cls-7" transform="translate(257.33 294.24)"><tspan x="0" y="0">G</tspan></text><circle cx="233.22" cy="409.09" r="10.87"/><text class="cls-7" transform="translate(228.79 412.75)"><tspan x="0" y="0">H</tspan></text><circle cx="409.65" cy="450.18" r="10.87"/><text class="cls-7" transform="translate(408.14 453.84)"><tspan x="0" y="0">I</tspan></text><circle cx="448.63" cy="458.1" r="10.87"/><text class="cls-7" transform="translate(445.65 461.76)"><tspan x="0" y="0">J</tspan></text><circle cx="478.63" cy="456.52" r="10.87"/><text class="cls-7" transform="translate(474.63 460.18)"><tspan x="0" y="0">K</tspan></text><circle cx="503.46" cy="448.5" r="10.87"/><text class="cls-7" transform="translate(500.27 452.16)"><tspan x="0" y="0">L</tspan></text><circle cx="526.19" cy="435.13" r="10.87"/><text class="cls-7" transform="translate(520.99 438.8)"><tspan x="0" y="0">M</tspan></text><circle cx="549.07" cy="421.57" r="10.87"/><text class="cls-7" transform="translate(544.69 425.23)"><tspan x="0" y="0">N</tspan></text></svg>