<svg id="Capa_1" data-name="Capa 1" xmlns="http://www.w3.org/2000/svg" viewBox="0 0 501.11 388.59"><defs><style>.cls-1{fill:#fbb858}</style></defs><g id="Birds_Seawater" data-name="Birds &amp;amp; Seawater"><path class="cls-1" d="M435.14 388.59c-6.58 0-12.9-1.42-18.79-4.22-.12-.06-.23-.12-.34-.18l-27.59-16.25c-9.27-4.35-20.35-4.34-29.59 0l-27.59 16.25c-.11.07-.23.13-.35.18-11.78 5.6-25.81 5.6-37.58 0-.12-.06-.23-.12-.35-.18l-27.58-16.25c-9.25-4.34-20.34-4.35-29.6 0l-27.58 16.25c-.11.07-.23.13-.35.19-11.79 5.6-25.78 5.6-37.59 0-.12-.06-.24-.12-.35-.19l-27.58-16.25c-9.25-4.34-20.34-4.35-29.6 0l-27.58 16.25c-.11.07-.23.13-.35.19-5.89 2.8-12.2 4.21-18.75 4.21h-.04c-6.58 0-12.9-1.42-18.79-4.22-.12-.06-.23-.12-.35-.18l-27.59-16.25c-4.63-2.17-9.61-3.27-14.8-3.27-2.46 0-4.45-1.99-4.45-4.45s1.99-4.45 4.45-4.45c6.6 0 12.92 1.42 18.8 4.22.12.06.23.12.34.18l27.59 16.25c4.63 2.17 9.61 3.27 14.8 3.27h.03c5.16 0 10.13-1.1 14.77-3.27l27.58-16.25c.11-.07.23-.13.35-.19 11.76-5.6 25.83-5.6 37.59 0 .12.06.23.12.34.19l27.58 16.25c9.3 4.35 20.32 4.35 29.61 0l27.58-16.25c.11-.07.23-.13.34-.19 11.76-5.6 25.84-5.6 37.6 0 .12.06.23.12.34.18l27.59 16.25c9.28 4.35 20.32 4.35 29.6 0l27.59-16.25c.11-.06.23-.12.34-.18 11.75-5.59 25.81-5.6 37.59 0 .12.06.23.12.34.18l27.59 16.25c9.26 4.35 20.3 4.35 29.59 0l27.58-16.25c.11-.07.23-.13.35-.19 5.88-2.8 12.2-4.22 18.79-4.22 2.46 0 4.45 1.99 4.45 4.45s-1.99 4.45-4.45 4.45c-5.19 0-10.17 1.1-14.79 3.27l-27.58 16.25c-.12.07-.23.13-.35.19-5.9 2.8-12.22 4.22-18.79 4.22Z" id="Water_Wave_3" data-name="Water Wave 3"/><path class="cls-1" d="M435.14 327.88c-6.58 0-12.9-1.42-18.79-4.23-.12-.06-.23-.12-.34-.18l-27.59-16.23c-9.33-4.36-20.29-4.36-29.6 0l-27.59 16.23c-.11.07-.23.13-.34.18-11.78 5.61-25.81 5.61-37.59 0-.12-.06-.23-.12-.34-.18l-27.58-16.23c-9.3-4.36-20.28-4.37-29.61 0l-27.58 16.23c-.11.07-.23.13-.34.18-11.78 5.61-25.8 5.61-37.6 0-.12-.06-.23-.12-.35-.18l-27.58-16.23c-9.34-4.37-20.26-4.37-29.61 0l-27.58 16.23c-.11.07-.23.13-.34.18-5.9 2.81-12.13 4.28-18.8 4.22-6.59 0-12.91-1.42-18.79-4.22-.12-.06-.23-.12-.34-.18l-27.59-16.23a34.624 34.624 0 0 0-14.81-3.29c-2.46 0-4.45-1.99-4.45-4.45s1.99-4.45 4.45-4.45c6.57 0 12.89 1.43 18.8 4.23.12.06.23.12.35.18l27.59 16.23c4.63 2.17 9.61 3.27 14.8 3.27h.05c5.16 0 10.12-1.1 14.75-3.27l27.58-16.23c.11-.07.23-.13.35-.19 11.85-5.62 25.74-5.61 37.58 0 .12.06.23.12.35.19l27.58 16.23c9.29 4.36 20.33 4.36 29.6 0l27.58-16.23c.11-.07.23-.13.35-.19 11.83-5.61 25.77-5.59 37.58 0 .12.06.24.12.35.19l27.59 16.23c9.28 4.36 20.32 4.36 29.6 0l27.59-16.23c.11-.07.23-.13.35-.19 11.81-5.6 25.74-5.61 37.58 0 .12.06.23.12.35.19l27.59 16.23c9.26 4.35 20.29 4.36 29.59 0l27.58-16.23c.11-.07.23-.13.35-.19 5.91-2.8 12.23-4.22 18.78-4.22 2.46 0 4.45 1.99 4.45 4.45s-1.99 4.45-4.45 4.45c-5.16 0-10.14 1.1-14.79 3.28l-27.58 16.23c-.11.07-.23.13-.35.18-5.9 2.8-12.22 4.23-18.79 4.23Z" id="Water_Wave_2" data-name="Water Wave 2"/><path class="cls-1" d="M435.14 267.17c-6.54 0-12.86-1.43-18.78-4.24-.12-.06-.23-.12-.35-.19l-27.59-16.24c-9.28-4.33-20.34-4.33-29.6 0l-27.59 16.24c-.11.07-.23.13-.35.19-11.85 5.62-25.72 5.62-37.58 0-.12-.06-.24-.12-.35-.19l-27.58-16.24c-9.26-4.33-20.36-4.33-29.61 0l-27.58 16.24c-.11.07-.23.13-.35.19-11.81 5.61-25.76 5.61-37.59 0-.12-.06-.24-.12-.35-.19l-27.58-16.24c-9.26-4.33-20.34-4.33-29.6 0l-27.58 16.24c-.11.07-.23.13-.35.19-5.9 2.8-12.21 4.22-18.75 4.22h-.04c-6.56 0-12.89-1.42-18.79-4.23-.12-.06-.23-.12-.35-.18L19.27 246.5c-4.65-2.17-9.63-3.27-14.81-3.27-2.46 0-4.45-1.99-4.45-4.45s1.99-4.45 4.45-4.45c6.57 0 12.89 1.41 18.79 4.2.12.06.24.12.36.19l27.59 16.24c4.65 2.18 9.63 3.29 14.8 3.29h.03c5.15 0 10.12-1.1 14.77-3.28l27.58-16.24c.11-.07.23-.13.35-.19 11.76-5.58 25.82-5.58 37.58 0 .12.06.24.12.35.19l27.58 16.24c9.32 4.36 20.3 4.35 29.61 0l27.58-16.25c.11-.07.23-.13.35-.19 11.75-5.57 25.82-5.57 37.58 0 .12.06.24.12.35.19l27.58 16.24c9.35 4.37 20.25 4.37 29.61 0l27.59-16.24c.11-.07.23-.13.35-.19 11.76-5.58 25.8-5.58 37.58 0 .12.06.24.12.35.19l27.59 16.24c9.33 4.37 20.22 4.37 29.6 0l27.58-16.24c.11-.07.23-.13.35-.19 5.88-2.79 12.2-4.2 18.78-4.2 2.46 0 4.45 1.99 4.45 4.45s-1.99 4.45-4.45 4.45c-5.19 0-10.17 1.1-14.79 3.26l-27.58 16.24c-.11.07-.23.13-.35.19-5.93 2.81-12.26 4.24-18.79 4.24Z" id="Water_Wave_1" data-name="Water Wave 1"/><path class="cls-1" d="M235.14 128.27c-.9 0-1.82-.22-2.67-.67a5.67 5.67 0 0 1-2.33-7.68c9.5-17.76 25.05-28.35 42.66-29.06 15.13-.64 29.92 6.17 40.21 18.03 10.31-11.86 25.17-18.66 40.24-18.03 17.6.71 33.13 11.3 42.63 29.06 1.48 2.77.43 6.21-2.33 7.68a5.673 5.673 0 0 1-7.68-2.33c-7.66-14.32-19.4-22.51-33.07-23.06-13.69-.58-27.05 6.81-35.01 19.2a5.655 5.655 0 0 1-4.77 2.61c-1.93 0-3.73-.98-4.77-2.61-7.95-12.38-21.38-19.79-34.98-19.19-13.68.54-25.44 8.73-33.1 23.06-1.02 1.91-2.98 3-5.01 3Z" id="Bird"/><path class="cls-1" d="M147.39 30.45c-.9 0-1.82-.22-2.67-.67-2.76-1.48-3.81-4.92-2.33-7.68C149.6 8.6 161.45.56 174.9.03c10.92-.42 21.71 4.21 29.48 12.44C212.15 4.24 222.9-.36 233.87.03c13.45.54 25.3 8.58 32.51 22.06 1.48 2.77.44 6.21-2.33 7.69-2.78 1.47-6.21.43-7.69-2.33-5.34-9.99-13.5-15.7-22.95-16.08-9.5-.37-18.74 4.73-24.27 13.34a5.685 5.685 0 0 1-9.56 0c-5.53-8.6-14.85-13.67-24.25-13.34-9.46.38-17.61 6.09-22.95 16.07-1.02 1.91-2.98 3-5.01 3Z" id="Bird-2" data-name="Bird"/></g></svg>