<svg xmlns="http://www.w3.org/2000/svg" xmlns:xlink="http://www.w3.org/1999/xlink" viewBox="0 0 672.09 500" style="enable-background:new 0 0 672.09 500" xml:space="preserve"><style>.st1{fill:none;stroke:#f9f8f2;stroke-miterlimit:10}</style><g id="OBJECTS"><defs><path id="SVGID_1_" d="M0 0h673.86v500H0z"/></defs><clipPath id="SVGID_00000070800874636124358790000004566021401637102771_"><use xlink:href="#SVGID_1_" style="overflow:visible"/></clipPath><g style="clip-path:url(#SVGID_00000070800874636124358790000004566021401637102771_)"><path class="st1" d="M-188.54 321.9c52.6-52.6 110.25 5.04 162.85-47.56 52.6-52.6-5.04-110.25 47.56-162.85 52.6-52.6 110.25 5.04 162.85-47.56 52.6-52.6-5.04-110.25 47.56-162.85 52.61-52.61 110.25 5.04 162.86-47.57 52.61-52.61-5.04-110.25 47.57-162.86"/><path class="st1" d="M-199.02 311.42c52.6-52.6 110.25 5.04 162.85-47.56 52.6-52.6-5.04-110.25 47.56-162.85 52.6-52.6 110.25 5.04 162.85-47.56C226.84.85 169.2-56.8 221.8-109.4c52.61-52.61 110.25 5.04 162.86-47.57 52.61-52.61-5.04-110.25 47.57-162.86"/><path class="st1" d="M-209.5 300.94c52.6-52.6 110.25 5.04 162.85-47.56C5.95 200.78-51.69 143.13.91 90.53c52.6-52.6 110.25 5.04 162.85-47.56 52.6-52.6-5.04-110.25 47.56-162.85 52.61-52.61 110.25 5.04 162.86-47.57 52.61-52.61-5.04-110.25 47.57-162.86"/><path class="st1" d="M-219.99 290.46c52.6-52.6 110.25 5.04 162.85-47.56 52.6-52.6-5.04-110.25 47.56-162.85 52.6-52.6 110.25 5.04 162.85-47.56 52.6-52.6-5.04-110.25 47.56-162.85 52.61-52.61 110.25 5.04 162.86-47.57s-5.04-110.25 47.57-162.86"/><path class="st1" d="M-230.47 279.97c52.6-52.6 110.25 5.04 162.85-47.56 52.6-52.6-5.04-110.25 47.56-162.85C32.55 16.96 90.19 74.6 142.79 22c52.6-52.6-5.04-110.25 47.56-162.85 52.61-52.61 110.25 5.04 162.86-47.57s-5.04-110.25 47.57-162.86"/><path class="st1" d="M-240.95 269.49c52.6-52.6 110.25 5.04 162.85-47.56 52.6-52.6-5.04-110.25 47.56-162.85 52.6-52.6 110.25 5.04 162.85-47.56 52.6-52.6-5.04-110.25 47.56-162.85 52.61-52.61 110.25 5.04 162.86-47.57 52.61-52.61-5.04-110.25 47.57-162.86"/><path class="st1" d="M-251.43 259.01c52.6-52.6 110.25 5.04 162.85-47.56 52.6-52.6-5.04-110.25 47.56-162.85C11.58-4 69.23 53.64 121.83 1.04c52.6-52.6-5.04-110.25 47.56-162.85 52.61-52.61 110.25 5.04 162.86-47.57 52.61-52.61-5.04-110.25 47.57-162.86"/><path class="st1" d="M-261.92 248.53c52.6-52.6 110.25 5.04 162.85-47.56 52.6-52.6-5.04-110.25 47.56-162.85C1.1-14.49 58.75 43.16 111.35-9.45c52.6-52.6-5.04-110.25 47.56-162.85 52.61-52.61 110.25 5.04 162.86-47.57 52.61-52.61-5.04-110.25 47.57-162.86"/><path class="st1" d="M-272.4 238.04c52.6-52.6 110.25 5.04 162.85-47.56 52.6-52.6-5.04-110.25 47.56-162.85 52.6-52.6 110.25 5.04 162.85-47.56 52.6-52.6-5.04-110.25 47.56-162.85 52.61-52.61 110.25 5.04 162.86-47.57 52.61-52.61-5.04-110.25 47.57-162.86"/><path class="st1" d="M-282.88 227.56c52.6-52.6 110.25 5.04 162.85-47.56 52.6-52.6-5.04-110.25 47.56-162.85 52.6-52.6 110.25 5.04 162.85-47.56 52.6-52.6-5.04-110.25 47.56-162.85 52.61-52.61 110.25 5.04 162.86-47.57 52.61-52.61-5.04-110.25 47.57-162.86"/><path class="st1" d="M-293.36 217.08c52.6-52.6 110.25 5.04 162.85-47.56 52.6-52.6-5.04-110.25 47.56-162.85 52.6-52.6 110.25 5.04 162.85-47.56 52.6-52.6-5.04-110.25 47.56-162.85 52.61-52.61 110.25 5.04 162.86-47.57 52.61-52.61-5.04-110.25 47.57-162.86"/><path class="st1" d="M-303.84 206.6c52.6-52.6 110.25 5.04 162.85-47.56 52.6-52.6-5.04-110.25 47.56-162.85 52.6-52.6 110.25 5.04 162.85-47.56 52.6-52.6-5.04-110.25 47.56-162.85 52.61-52.61 110.25 5.04 162.86-47.57s-5.04-110.25 47.57-162.86"/><path class="st1" d="M-314.33 196.11c52.6-52.6 110.25 5.04 162.85-47.56 52.6-52.6-5.04-110.25 47.56-162.85C-51.31-66.9 6.33-9.26 58.94-61.86c52.6-52.6-5.04-110.25 47.56-162.85 52.61-52.61 110.25 5.04 162.86-47.57s-5.04-110.25 47.57-162.86"/><path class="st1" d="M-324.81 185.63c52.6-52.6 110.25 5.04 162.85-47.56 52.6-52.6-5.04-110.25 47.56-162.85 52.6-52.6 110.25 5.04 162.85-47.56 52.6-52.6-5.04-110.25 47.56-162.85 52.61-52.61 110.25 5.04 162.86-47.57 52.61-52.61-5.04-110.25 47.57-162.86"/><path class="st1" d="M-335.29 175.15c52.6-52.6 110.25 5.04 162.85-47.56 52.6-52.6-5.04-110.25 47.56-162.85 52.6-52.6 110.25 5.04 162.85-47.56 52.6-52.6-5.04-110.25 47.56-162.85 52.61-52.61 110.25 5.04 162.86-47.57 52.61-52.61-5.04-110.25 47.57-162.86"/><path class="st1" d="M-345.77 164.67c52.6-52.6 110.25 5.04 162.85-47.56 52.6-52.6-5.04-110.25 47.56-162.85 52.6-52.6 110.25 5.04 162.85-47.56 52.6-52.6-5.04-110.25 47.56-162.85 52.61-52.61 110.25 5.04 162.86-47.57 52.61-52.61-5.04-110.25 47.57-162.86"/><path class="st1" d="M-356.26 154.18c52.6-52.6 110.25 5.04 162.85-47.56 52.6-52.6-5.04-110.25 47.56-162.85 52.6-52.6 110.25 5.04 162.85-47.56 52.6-52.6-5.04-110.25 47.56-162.85 52.61-52.61 110.25 5.04 162.86-47.57 52.61-52.61-5.04-110.25 47.57-162.86"/><path class="st1" d="M-366.74 143.7c52.6-52.6 110.25 5.04 162.85-47.56 52.6-52.6-5.04-110.25 47.56-162.85 52.6-52.6 110.25 5.04 162.85-47.56 52.6-52.6-5.04-110.25 47.56-162.85 52.61-52.61 110.25 5.04 162.86-47.57 52.61-52.61-5.04-110.25 47.57-162.86"/><path class="st1" d="M-377.22 133.22c52.6-52.6 110.25 5.04 162.85-47.56 52.6-52.6-5.04-110.25 47.56-162.85 52.6-52.6 110.25 5.04 162.85-47.56C48.65-177.36-9-235 43.6-287.61c52.61-52.61 110.25 5.04 162.86-47.57 52.61-52.61-5.04-110.25 47.57-162.86"/><path class="st1" d="M-387.7 122.74c52.6-52.6 110.25 5.04 162.85-47.56 52.6-52.6-5.04-110.25 47.56-162.85 52.6-52.6 110.25 5.04 162.85-47.56 52.6-52.6-5.04-110.25 47.56-162.85 52.61-52.61 110.25 5.04 162.86-47.57 52.61-52.61-5.04-110.25 47.57-162.86"/><path class="st1" d="M-398.19 112.26c52.6-52.6 110.25 5.04 162.85-47.56 52.6-52.6-5.04-110.25 47.56-162.85 52.6-52.6 110.25 5.04 162.85-47.56 52.6-52.6-5.04-110.25 47.56-162.85 52.61-52.61 110.25 5.04 162.86-47.57S180.46-466.39 233.07-519"/><path class="st1" d="M-408.67 101.77c52.6-52.6 110.25 5.04 162.85-47.56 52.6-52.6-5.04-110.25 47.56-162.85 52.6-52.6 110.25 5.04 162.85-47.56 52.6-52.6-5.04-110.25 47.56-162.85 52.61-52.61 110.25 5.04 162.86-47.57s-5.04-110.25 47.57-162.86M146.74 657.18c52.6-52.6 110.25 5.04 162.85-47.56 52.6-52.6-5.04-110.25 47.56-162.85 52.6-52.6 110.25 5.04 162.85-47.56 52.6-52.6-5.04-110.25 47.56-162.85 52.61-52.61 110.25 5.04 162.86-47.57 52.61-52.61-5.04-110.25 47.57-162.86"/><path class="st1" d="M136.26 646.7c52.6-52.6 110.25 5.04 162.85-47.56 52.6-52.6-5.04-110.25 47.56-162.85 52.6-52.6 110.25 5.04 162.85-47.56 52.6-52.6-5.04-110.25 47.56-162.85 52.61-52.61 110.25 5.04 162.86-47.57 52.61-52.61-5.04-110.25 47.57-162.86"/><path class="st1" d="M125.77 636.21c52.6-52.6 110.25 5.04 162.85-47.56 52.6-52.6-5.04-110.25 47.56-162.85 52.6-52.6 110.25 5.04 162.85-47.56 52.6-52.6-5.04-110.25 47.56-162.85 52.61-52.61 110.25 5.04 162.86-47.57S704.42 57.57 757.03 4.96"/><path class="st1" d="M115.29 625.73c52.6-52.6 110.25 5.04 162.85-47.56 52.6-52.6-5.04-110.25 47.56-162.85 52.6-52.6 110.25 5.04 162.85-47.56 52.6-52.6-5.04-110.25 47.56-162.85 52.61-52.61 110.25 5.04 162.86-47.57 52.61-52.61-5.04-110.25 47.57-162.86"/><path class="st1" d="M104.81 615.25c52.6-52.6 110.25 5.04 162.85-47.56 52.6-52.6-5.04-110.25 47.56-162.85 52.6-52.6 110.25 5.04 162.85-47.56 52.6-52.6-5.04-110.25 47.56-162.85 52.61-52.61 110.25 5.04 162.86-47.57S683.46 36.6 736.06-16"/><path class="st1" d="M94.33 604.77c52.6-52.6 110.25 5.04 162.85-47.56 52.6-52.6-5.04-110.25 47.56-162.85 52.6-52.6 110.25 5.04 162.85-47.56 52.6-52.6-5.04-110.25 47.56-162.85 52.61-52.61 110.25 5.04 162.86-47.57 52.61-52.61-5.04-110.25 47.57-162.86"/><path class="st1" d="M83.84 594.29c52.6-52.6 110.25 5.04 162.85-47.56 52.6-52.6-5.04-110.25 47.56-162.85 52.6-52.6 110.25 5.04 162.85-47.56 52.6-52.6-5.04-110.25 47.56-162.85 52.61-52.61 110.25 5.04 162.86-47.57 52.61-52.61-5.04-110.25 47.57-162.86"/><path class="st1" d="M73.36 583.8c52.6-52.6 110.25 5.04 162.85-47.56 52.6-52.6-5.04-110.25 47.56-162.85 52.6-52.6 110.25 5.04 162.85-47.56 52.6-52.6-5.04-110.25 47.56-162.85 52.61-52.61 110.25 5.04 162.86-47.57C709.65 62.8 652 5.16 704.61-47.45"/><path class="st1" d="M62.88 573.32c52.6-52.6 110.25 5.04 162.85-47.56 52.6-52.6-5.04-110.25 47.56-162.85 52.6-52.6 110.25 5.04 162.85-47.56 52.6-52.6-5.04-110.25 47.56-162.85 52.61-52.61 110.25 5.04 162.86-47.57 52.61-52.61-5.04-110.25 47.57-162.86"/><path class="st1" d="M52.4 562.84c52.6-52.6 110.25 5.04 162.85-47.56 52.6-52.6-5.04-110.25 47.56-162.85 52.6-52.6 110.25 5.04 162.85-47.56 52.6-52.6-5.04-110.25 47.56-162.85 52.61-52.61 110.25 5.04 162.86-47.57 52.61-52.61-5.04-110.25 47.57-162.86"/><path class="st1" d="M41.91 552.36c52.6-52.6 110.25 5.04 162.85-47.56 52.6-52.6-5.04-110.25 47.56-162.85 52.6-52.6 110.25 5.04 162.85-47.56 52.6-52.6-5.04-110.25 47.56-162.85 52.61-52.61 110.25 5.04 162.86-47.57 52.61-52.61-5.04-110.25 47.57-162.86"/><path class="st1" d="M31.43 541.87c52.6-52.6 110.25 5.04 162.85-47.56 52.6-52.6-5.04-110.25 47.56-162.85 52.6-52.6 110.25 5.04 162.85-47.56 52.6-52.6-5.04-110.25 47.56-162.85 52.61-52.61 110.25 5.04 162.86-47.57 52.61-52.61-5.04-110.25 47.57-162.86"/><path class="st1" d="M20.95 531.39c52.6-52.6 110.25 5.04 162.85-47.56 52.6-52.6-5.04-110.25 47.56-162.85 52.6-52.6 110.25 5.04 162.85-47.56 52.6-52.6-5.04-110.25 47.56-162.85C494.38 57.96 552.03 115.6 604.63 63S599.6-47.26 652.2-99.86"/><path class="st1" d="M10.47 520.91c52.6-52.6 110.25 5.04 162.85-47.56 52.6-52.6-5.04-110.25 47.56-162.85 52.6-52.6 110.25 5.04 162.85-47.56 52.6-52.6-5.04-110.25 47.56-162.85 52.61-52.61 110.25 5.04 162.86-47.57 52.61-52.61-5.04-110.25 47.57-162.86"/><path class="st1" d="M-.02 510.43c52.6-52.6 110.25 5.04 162.85-47.56 52.6-52.6-5.04-110.25 47.56-162.85 52.6-52.6 110.25 5.04 162.85-47.56 52.6-52.6-5.04-110.25 47.56-162.85C473.41 37 531.05 94.65 583.66 42.04c52.61-52.61-5.04-110.25 47.57-162.86"/><path class="st1" d="M-10.5 499.94c52.6-52.6 110.25 5.04 162.85-47.56 52.6-52.6-5.04-110.25 47.56-162.85 52.6-52.6 110.25 5.04 162.85-47.56 52.6-52.6-5.04-110.25 47.56-162.85 52.61-52.61 110.25 5.04 162.86-47.57 52.61-52.61-5.04-110.25 47.57-162.86"/><path class="st1" d="M-20.98 489.46c52.6-52.6 110.25 5.04 162.85-47.56 52.6-52.6-5.04-110.25 47.56-162.85 52.6-52.6 110.25 5.04 162.85-47.56 52.6-52.6-5.04-110.25 47.56-162.85 52.61-52.61 110.25 5.04 162.86-47.57 52.61-52.61-5.04-110.25 47.57-162.86"/><path class="st1" d="M-31.46 478.98c52.6-52.6 110.25 5.04 162.85-47.56 52.6-52.6-5.04-110.25 47.56-162.85 52.6-52.6 110.25 5.04 162.85-47.56 52.6-52.6-5.04-110.25 47.56-162.85 52.61-52.61 110.25 5.04 162.86-47.57 52.61-52.61-5.04-110.25 47.57-162.86"/><path class="st1" d="M-41.94 468.5c52.6-52.6 110.25 5.04 162.85-47.56 52.6-52.6-5.04-110.25 47.56-162.85 52.6-52.6 110.25 5.04 162.85-47.56 52.6-52.6-5.04-110.25 47.56-162.85C431.49-4.94 489.13 52.71 541.74.1c52.61-52.61-5.04-110.25 47.57-162.86"/><path class="st1" d="M-52.43 458.01c52.6-52.6 110.25 5.04 162.85-47.56 52.6-52.6-5.04-110.25 47.56-162.85 52.6-52.6 110.25 5.04 162.85-47.56 52.6-52.6-5.04-110.25 47.56-162.85C421-15.42 478.64 42.23 531.25-10.38c52.61-52.61-5.04-110.25 47.57-162.86"/><path class="st1" d="M-62.91 447.53c52.6-52.6 110.25 5.04 162.85-47.56 52.6-52.6-5.04-110.25 47.56-162.85 52.6-52.6 110.25 5.04 162.85-47.56 52.6-52.6-5.04-110.25 47.56-162.85 52.61-52.61 110.25 5.04 162.86-47.57s-5.04-110.25 47.57-162.86"/><path class="st1" d="M-73.39 437.05c52.6-52.6 110.25 5.04 162.85-47.56 52.6-52.6-5.04-110.25 47.56-162.85 52.6-52.6 110.25 5.04 162.85-47.56 52.6-52.6-5.04-110.25 47.56-162.85 52.61-52.61 110.25 5.04 162.86-47.57s-5.04-110.25 47.57-162.86M482.01 992.46c52.6-52.6 110.25 5.04 162.85-47.56 52.6-52.6-5.04-110.25 47.56-162.85 52.6-52.6 110.25 5.04 162.85-47.56 52.6-52.6-5.04-110.25 47.56-162.85 52.61-52.61 110.25 5.04 162.86-47.57 52.61-52.61-5.04-110.25 47.57-162.86"/><path class="st1" d="M471.53 981.97c52.6-52.6 110.25 5.04 162.85-47.56 52.6-52.6-5.04-110.25 47.56-162.85 52.6-52.6 110.25 5.04 162.85-47.56 52.6-52.6-5.04-110.25 47.56-162.85 52.61-52.61 110.25 5.04 162.86-47.57 52.61-52.61-5.04-110.25 47.57-162.86"/><path class="st1" d="M461.05 971.49c52.6-52.6 110.25 5.04 162.85-47.56 52.6-52.6-5.04-110.25 47.56-162.85 52.6-52.6 110.25 5.04 162.85-47.56 52.6-52.6-5.04-110.25 47.56-162.85 52.61-52.61 110.25 5.04 162.86-47.57 52.61-52.61-5.04-110.25 47.57-162.86"/><path class="st1" d="M450.57 961.01c52.6-52.6 110.25 5.04 162.85-47.56 52.6-52.6-5.04-110.25 47.56-162.85 52.6-52.6 110.25 5.04 162.85-47.56 52.6-52.6-5.04-110.25 47.56-162.85 52.61-52.61 110.25 5.04 162.86-47.57 52.61-52.61-5.04-110.25 47.57-162.86"/><path class="st1" d="M440.09 950.53c52.6-52.6 110.25 5.04 162.85-47.56 52.6-52.6-5.04-110.25 47.56-162.85 52.6-52.6 110.25 5.04 162.85-47.56 52.6-52.6-5.04-110.25 47.56-162.85 52.61-52.61 110.25 5.04 162.86-47.57s-5.04-110.25 47.57-162.86"/><path class="st1" d="M429.6 940.04c52.6-52.6 110.25 5.04 162.85-47.56 52.6-52.6-5.04-110.25 47.56-162.85 52.6-52.6 110.25 5.04 162.85-47.56 52.6-52.6-5.04-110.25 47.56-162.85 52.61-52.61 110.25 5.04 162.86-47.57 52.61-52.61-5.04-110.25 47.57-162.86"/><path class="st1" d="M419.12 929.56c52.6-52.6 110.25 5.04 162.85-47.56 52.6-52.6-5.04-110.25 47.56-162.85 52.6-52.6 110.25 5.04 162.85-47.56 52.6-52.6-5.04-110.25 47.56-162.85 52.61-52.61 110.25 5.04 162.86-47.57 52.61-52.61-5.04-110.25 47.57-162.86"/><path class="st1" d="M408.64 919.08c52.6-52.6 110.25 5.04 162.85-47.56 52.6-52.6-5.04-110.25 47.56-162.85 52.6-52.6 110.25 5.04 162.85-47.56 52.6-52.6-5.04-110.25 47.56-162.85 52.61-52.61 110.25 5.04 162.86-47.57 52.61-52.61-5.04-110.25 47.57-162.86"/><path class="st1" d="M398.16 908.6c52.6-52.6 110.25 5.04 162.85-47.56 52.6-52.6-5.04-110.25 47.56-162.85 52.6-52.6 110.25 5.04 162.85-47.56 52.6-52.6-5.04-110.25 47.56-162.85 52.61-52.61 110.25 5.04 162.86-47.57 52.61-52.61-5.04-110.25 47.57-162.86"/><path class="st1" d="M387.67 898.11c52.6-52.6 110.25 5.04 162.85-47.56 52.6-52.6-5.04-110.25 47.56-162.85 52.6-52.6 110.25 5.04 162.85-47.56 52.6-52.6-5.04-110.25 47.56-162.85 52.61-52.61 110.25 5.04 162.86-47.57 52.61-52.61-5.04-110.25 47.57-162.86"/><path class="st1" d="M377.19 887.63c52.6-52.6 110.25 5.04 162.85-47.56 52.6-52.6-5.04-110.25 47.56-162.85 52.6-52.6 110.25 5.04 162.85-47.56 52.6-52.6-5.04-110.25 47.56-162.85 52.61-52.61 110.25 5.04 162.86-47.57 52.61-52.61-5.04-110.25 47.57-162.86"/><path class="st1" d="M366.71 877.15c52.6-52.6 110.25 5.04 162.85-47.56 52.6-52.6-5.04-110.25 47.56-162.85 52.6-52.6 110.25 5.04 162.85-47.56 52.6-52.6-5.04-110.25 47.56-162.85 52.61-52.61 110.25 5.04 162.86-47.57s-5.04-110.25 47.57-162.86"/><path class="st1" d="M356.23 866.67c52.6-52.6 110.25 5.04 162.85-47.56 52.6-52.6-5.04-110.25 47.56-162.85 52.6-52.6 110.25 5.04 162.85-47.56 52.6-52.6-5.04-110.25 47.56-162.85 52.61-52.61 110.25 5.04 162.86-47.57 52.61-52.61-5.04-110.25 47.57-162.86"/><path class="st1" d="M345.74 856.19c52.6-52.6 110.25 5.04 162.85-47.56 52.6-52.6-5.04-110.25 47.56-162.85 52.6-52.6 110.25 5.04 162.85-47.56 52.6-52.6-5.04-110.25 47.56-162.85 52.61-52.61 110.25 5.04 162.86-47.57 52.61-52.61-5.04-110.25 47.57-162.86"/><path class="st1" d="M335.26 845.7c52.6-52.6 110.25 5.04 162.85-47.56 52.6-52.6-5.04-110.25 47.56-162.85 52.6-52.6 110.25 5.04 162.85-47.56 52.6-52.6-5.04-110.25 47.56-162.85 52.61-52.61 110.25 5.04 162.86-47.57 52.61-52.61-5.04-110.25 47.57-162.86"/><path class="st1" d="M324.78 835.22c52.6-52.6 110.25 5.04 162.85-47.56 52.6-52.6-5.04-110.25 47.56-162.85 52.6-52.6 110.25 5.04 162.85-47.56C750.64 524.65 693 467 745.6 414.4c52.61-52.61 110.25 5.04 162.86-47.57 52.61-52.61-5.04-110.25 47.57-162.86"/><path class="st1" d="M314.3 824.74c52.6-52.6 110.25 5.04 162.85-47.56 52.6-52.6-5.04-110.25 47.56-162.85 52.6-52.6 110.25 5.04 162.85-47.56 52.6-52.6-5.04-110.25 47.56-162.85 52.61-52.61 110.25 5.04 162.86-47.57 52.61-52.61-5.04-110.25 47.57-162.86"/><path class="st1" d="M303.81 814.26c52.6-52.6 110.25 5.04 162.85-47.56 52.6-52.6-5.04-110.25 47.56-162.85 52.6-52.6 110.25 5.04 162.85-47.56 52.6-52.6-5.04-110.25 47.56-162.85 52.61-52.61 110.25 5.04 162.86-47.57 52.61-52.61-5.04-110.25 47.57-162.86"/><path class="st1" d="M293.33 803.77c52.6-52.6 110.25 5.04 162.85-47.56 52.6-52.6-5.04-110.25 47.56-162.85 52.6-52.6 110.25 5.04 162.85-47.56 52.6-52.6-5.04-110.25 47.56-162.85 52.61-52.61 110.25 5.04 162.86-47.57 52.61-52.61-5.04-110.25 47.57-162.86"/><path class="st1" d="M282.85 793.29c52.6-52.6 110.25 5.04 162.85-47.56 52.6-52.6-5.04-110.25 47.56-162.85 52.6-52.6 110.25 5.04 162.85-47.56 52.6-52.6-5.04-110.25 47.56-162.85 52.61-52.61 110.25 5.04 162.86-47.57 52.61-52.61-5.04-110.25 47.57-162.86"/><path class="st1" d="M272.37 782.81c52.6-52.6 110.25 5.04 162.85-47.56 52.6-52.6-5.04-110.25 47.56-162.85 52.6-52.6 110.25 5.04 162.85-47.56 52.6-52.6-5.04-110.25 47.56-162.85 52.61-52.61 110.25 5.04 162.86-47.57 52.61-52.61-5.04-110.25 47.57-162.86"/><path class="st1" d="M261.88 772.33c52.6-52.6 110.25 5.04 162.85-47.56 52.6-52.6-5.04-110.25 47.56-162.85 52.6-52.6 110.25 5.04 162.85-47.56 52.6-52.6-5.04-110.25 47.56-162.85 52.61-52.61 110.25 5.04 162.86-47.57 52.61-52.61-5.04-110.25 47.57-162.86M-179.04 313.59c5.75.69 11.48-1.18 17.27 4.61 8.7 8.7.14 17.26 8.84 25.96s17.25.13 25.95 8.83.14 17.26 8.84 25.96 17.25.13 25.96 8.83c8.7 8.7.13 17.26 8.83 25.96s17.26.14 25.96 8.84c.38.38.73.76 1.04 1.14M-161.27 303.54c3.28.21 6.56 1.03 9.86 4.33 8.7 8.7.13 17.25 8.83 25.95s17.26.14 25.96 8.84.14 17.25 8.83 25.95c8.71 8.7 17.26.14 25.96 8.84s.14 17.25 8.84 25.95 17.25.14 25.95 8.84c1.85 1.85 2.91 3.67 3.53 5.51M-140.25 298.39c7.32 8.39-.39 16.68 8.01 25.08 8.7 8.7 17.26.13 25.96 8.83s.13 17.26 8.83 25.96 17.26.13 25.96 8.83.13 17.26 8.83 25.96 17.26.13 25.96 8.83c4.29 4.29 4.38 8.54 4.42 12.79M-126.37 297.59c.25 5.16-.73 10.32 4.48 15.53 8.7 8.7 17.25.13 25.95 8.84 8.7 8.69.14 17.25 8.84 25.95s17.25.13 25.95 8.84c8.7 8.7.14 17.25 8.84 25.95s17.25.14 25.95 8.84c7.25 7.24 2.52 14.39 5.76 21.6M-114.88 297.8c.64 1.65 1.66 3.31 3.33 4.97 8.7 8.7 17.26.14 25.96 8.84s.13 17.25 8.83 25.95 17.26.14 25.96 8.84.14 17.26 8.84 25.96 17.25.13 25.95 8.83.14 17.26 8.84 25.96c7.7 7.7 15.28 1.87 22.96 6.47M-79.26 298.34c1.33.65 2.67 1.57 4.01 2.92 8.7 8.7.13 17.26 8.83 25.96s17.26.13 25.96 8.83.13 17.26 8.83 25.96 17.26.13 25.96 8.83c8.7 8.71.13 17.26 8.83 25.96s17.26.14 25.96 8.84c2.68 2.68 3.72 5.35 4.14 8.02M-61.7 295.59c2.97 7.1-1.5 14.14 5.63 21.28 8.7 8.7 17.25.14 25.95 8.84s.14 17.25 8.84 25.95 17.25.14 25.95 8.84.14 17.25 8.84 25.96c8.7 8.7 17.26.13 25.96 8.83 5.82 5.82 3.9 11.58 4.62 17.35M-50.17 291.54c.15 4.98-.58 9.96 4.44 14.97 8.7 8.71 17.26.14 25.96 8.84s.13 17.26 8.83 25.96 17.26.13 25.96 8.83.14 17.26 8.84 25.96 17.25.13 25.95 8.83c8.27 8.27.96 16.39 7.66 24.64M-39.74 285.85c.17 3.43.91 6.87 4.36 10.32 8.7 8.7 17.25.13 25.96 8.83 8.7 8.7.13 17.26 8.83 25.96s17.26.14 25.96 8.84.13 17.25 8.83 25.95 17.26.14 25.96 8.84.14 17.26 8.84 25.96c1.06 1.06 2.12 1.87 3.18 2.47M-29.19 277.68c.39 2.7 1.42 5.42 4.15 8.14 8.71 8.7 17.26.14 25.96 8.84s.14 17.25 8.84 25.95 17.25.14 25.95 8.84.14 17.26 8.84 25.96 17.26.13 25.96 8.83.13 17.26 8.83 25.96c1.88 1.88 3.74 2.95 5.61 3.56M-18.91 266.81c.33 2.89 1.31 5.77 4.22 8.68 8.7 8.7 17.26.13 25.96 8.83s.13 17.26 8.83 25.96 17.26.13 25.96 8.83.13 17.26 8.84 25.96c8.7 8.7 17.25.14 25.95 8.84s.14 17.25 8.84 25.96c1.82 1.82 3.62 2.88 5.43 3.5M-8.78 250.5c.12 4.86-.46 9.72 4.44 14.63 8.7 8.7 17.25.14 25.95 8.84s.14 17.25 8.84 25.95 17.25.14 25.95 8.84c8.71 8.7.14 17.25 8.84 25.95s17.26.14 25.96 8.84.13 17.26 8.84 25.96c1.04 1.04 2.07 1.83 3.11 2.43M-2.57 229.1c8.27 8.6-.03 17.08 8.57 25.68 8.7 8.7 17.26.14 25.96 8.84s.14 17.26 8.84 25.96 17.25.13 25.95 8.83.14 17.26 8.84 25.96 17.25.13 25.95 8.83c8.34 8.34.84 16.53 7.83 24.86M-1.4 214.24c2.97.31 5.93 1.26 8.93 4.25 8.7 8.7.13 17.26 8.83 25.96s17.26.13 25.96 8.83.13 17.26 8.83 25.96 17.26.13 25.96 8.83c8.7 8.71.13 17.26 8.83 25.96s17.26.14 25.96 8.84c.76.76 1.39 1.52 1.91 2.28M-1.49 203.15c6.45 1.62 12.86-1.5 19.36 4.99 8.7 8.7.14 17.25 8.84 25.95s17.25.14 25.95 8.84.14 17.25 8.84 25.95 17.25.14 25.95 8.84.14 17.25 8.84 25.96c5.69 5.69 11.33 3.98 16.99 4.58M-2.39 171.32c.81 5.87-1.27 11.72 4.65 17.64 8.7 8.7 17.26.14 25.96 8.84s.13 17.26 8.83 25.95c8.7 8.71 17.26.14 25.96 8.84s.13 17.26 8.83 25.96 17.26.13 25.96 8.83.14 17.26 8.84 25.96c2.07 2.07 4.13 3.16 6.18 3.73M.05 149.89c1.24.65 2.48 1.53 3.72 2.77 8.7 8.7.14 17.26 8.84 25.96s17.25.13 25.95 8.83.14 17.26 8.84 25.96 17.25.13 25.95 8.83c8.71 8.71.14 17.26 8.84 25.96s17.26.14 25.96 8.84c6.71 6.71 3.15 13.33 5.15 19.99M3.82 137.97c3.42.18 6.85.91 10.3 4.36 8.7 8.7.13 17.25 8.83 25.95s17.26.14 25.96 8.84.13 17.25 8.83 25.95 17.26.14 25.96 8.84.14 17.25 8.84 25.95 17.25.14 25.95 8.84c.9.9 1.6 1.79 2.17 2.67M9.13 127.51c5.1.22 10.2-.68 15.34 4.47 8.7 8.7.13 17.26 8.83 25.96s17.26.13 25.96 8.83.13 17.26 8.83 25.96 17.26.13 25.96 8.83.13 17.26 8.83 25.96c8.65 8.65 17.17.22 25.81 8.69M16.85 116.93c5.98.93 11.94-1.33 17.97 4.69 8.7 8.7.14 17.26 8.84 25.96s17.25.13 25.95 8.84c8.7 8.69.14 17.25 8.84 25.95s17.25.14 25.95 8.84.14 17.25 8.84 25.95c8.44 8.44 16.77.62 25.2 8.13M27.16 106.57c5.99.95 11.96-1.32 18 4.71 8.7 8.7.13 17.25 8.83 25.95s17.26.14 25.96 8.84.13 17.25 8.83 25.95 17.26.14 25.96 8.84.13 17.26 8.84 25.96c8.7 8.7 17.25.13 25.95 8.83.11.11.21.22.31.32M41.79 96.52c4.56.05 9.11-.18 13.71 4.42 8.7 8.7.14 17.26 8.84 25.96s17.25.13 25.96 8.83c8.69 8.7.13 17.26 8.83 25.96s17.26.13 25.96 8.83.13 17.26 8.83 25.96 17.26.13 25.96 8.83c1.23 1.23 2.11 2.45 2.75 3.67M63.89 88.92c.66.46 1.3 1.02 1.96 1.67 8.7 8.7.13 17.25 8.83 25.95 8.71 8.7 17.26.14 25.96 8.84s.14 17.25 8.84 25.95 17.25.14 25.95 8.84.14 17.25 8.84 25.95 17.25.14 25.95 8.84c3.38 3.38 4.15 6.73 4.35 10.08M80.15 87.27c1.38 6.3-1.46 12.58 4.88 18.92 8.7 8.71 17.26.14 25.96 8.84s.13 17.26 8.83 25.95c8.7 8.71 17.26.14 25.96 8.84s.13 17.26 8.83 25.96 17.26.13 25.96 8.83c6.21 6.21 3.62 12.36 4.81 18.53M91.16 87.26c.35 2.86 1.34 5.72 4.22 8.59 8.7 8.7 17.25.13 25.95 8.83s.14 17.26 8.84 25.96 17.25.13 25.95 8.84c8.71 8.7.14 17.25 8.84 25.95s17.26.14 25.96 8.84.13 17.25 8.83 25.95c.87.87 1.74 1.56 2.6 2.13M108.85 87.95c7.63 4.44 15.17-1.27 22.83 6.39 8.7 8.7.13 17.25 8.83 25.95s17.26.14 25.96 8.84.14 17.25 8.84 25.95 17.25.14 25.95 8.84.14 17.26 8.84 25.96 17.25.13 25.95 8.83c1.56 1.56 2.57 3.12 3.21 4.68M143.93 86.27c5.43 7.92-1.02 15.74 6.92 23.68 8.7 8.7 17.26.13 25.96 8.83s.13 17.26 8.83 25.96 17.26.13 25.96 8.83.13 17.26 8.84 25.96c8.7 8.7 17.25.14 25.95 8.84 4.8 4.8 4.35 9.56 4.43 14.32M156.61 82.62c.6 5.65-1.1 11.28 4.59 16.97 8.7 8.7 17.25.14 25.95 8.84s.14 17.25 8.84 25.95 17.25.14 25.95 8.84c8.71 8.7.14 17.25 8.84 25.96 8.7 8.7 17.26.13 25.96 8.83 7.56 7.56 2.08 15.02 6.23 22.55M167.14 77.6c.07 3.87.49 7.74 4.4 11.64 8.7 8.7 17.26.14 25.96 8.84s.13 17.26 8.83 25.96 17.26.13 25.96 8.83.14 17.26 8.84 25.96 17.25.13 25.95 8.83c8.71 8.71.14 17.26 8.84 25.96.61.61 1.22 1.13 1.83 1.58M177.67 70.31c.35 2.86 1.34 5.72 4.22 8.59 8.7 8.7 17.25.13 25.96 8.83 8.7 8.7.13 17.26 8.83 25.96s17.26.13 25.96 8.83c8.7 8.71.13 17.26 8.83 25.96s17.26.14 25.96 8.84.14 17.26 8.84 25.96c1.7 1.7 3.39 2.74 5.08 3.38M188.08 60.4c.39 2.7 1.42 5.43 4.15 8.15 8.71 8.7 17.26.14 25.96 8.84s.14 17.25 8.84 25.95 17.25.14 25.95 8.84.14 17.26 8.84 25.96 17.26.13 25.96 8.83.13 17.26 8.84 25.96c1.92 1.92 3.82 3 5.73 3.6M198.18 46.73c.08 3.81.55 7.63 4.4 11.47 8.7 8.71 17.26.14 25.96 8.84s.13 17.26 8.83 25.96 17.26.13 25.96 8.83.14 17.26 8.84 25.96 17.25.14 25.95 8.84.14 17.25 8.84 25.96c1.37 1.37 2.74 2.31 4.11 2.97M206.64 25.2c4.27 7.57-1.3 15.07 6.29 22.67 8.7 8.7 17.25.13 25.95 8.84 8.7 8.7.14 17.25 8.84 25.95s17.26.14 25.96 8.84.13 17.25 8.83 25.95 17.26.14 25.96 8.84.14 17.26 8.84 25.96c.19.19.37.37.56.53M208.85 8.02c1.86.62 3.72 1.68 5.59 3.55 8.7 8.7.13 17.25 8.83 25.95s17.26.14 25.96 8.84.14 17.25 8.84 25.95 17.25.14 25.95 8.84.14 17.26 8.84 25.96 17.25.13 25.95 8.83c5.29 5.29 4.21 10.52 4.49 15.76M209.02-3.26c5.25.28 10.49-.81 15.78 4.48 8.7 8.7.13 17.26 8.83 25.96s17.26.13 25.96 8.83.13 17.26 8.83 25.96 17.26.13 25.96 8.83.13 17.26 8.84 25.96c6.93 6.93 13.76 2.91 20.65 5.39M208.45-18.74c.23.26.47.51.74.78 8.7 8.7 17.25.14 25.95 8.84s.14 17.25 8.84 25.95 17.25.14 25.95 8.84.14 17.25 8.84 25.95 17.25.14 25.95 8.84c8.71 8.7.14 17.25 8.84 25.96 3.29 3.29 6.56 4.11 9.82 4.33M209.44-55.4c.42.34.84.72 1.26 1.14 8.7 8.7.13 17.25 8.83 25.95s17.26.14 25.96 8.84.13 17.25 8.83 25.95 17.26.14 25.96 8.84.13 17.26 8.83 25.96 17.26.13 25.96 8.83c8.44 8.44.63 16.77 8.12 25.2M212.84-68.76c2.72.38 5.46 1.41 8.2 4.16 8.7 8.7.14 17.26 8.84 25.96s17.25.13 25.96 8.83c8.69 8.7.13 17.26 8.83 25.96s17.25.13 25.96 8.83c8.7 8.7.13 17.26 8.83 25.96s17.26.13 25.96 8.83c1.59 1.59 2.61 3.19 3.26 4.78M217.51-79.37c4.61.06 9.23-.22 13.88 4.43 8.7 8.7.13 17.25 8.83 25.95 8.71 8.7 17.26.14 25.96 8.84s.14 17.25 8.83 25.95c8.71 8.7 17.26.14 25.96 8.84s.14 17.25 8.84 25.95 17.25.14 25.95 8.84c.15.15.3.31.45.46M224.35-89.92c5.79.72 11.56-1.21 17.39 4.62 8.7 8.7.13 17.25 8.83 25.95 8.7 8.71 17.26.14 25.96 8.84s.13 17.26 8.83 25.95c8.7 8.71 17.26.14 25.96 8.84s.13 17.26 8.83 25.96c8.45 8.45 16.79.6 25.23 8.14M233.79-100.4c6.09 1.07 12.16-1.38 18.29 4.75 8.7 8.7.14 17.26 8.84 25.96s17.25.13 25.95 8.83.14 17.26 8.84 25.96 17.25.13 25.95 8.84c8.7 8.7.14 17.25 8.84 25.95 8.61 8.61 17.09.3 25.71 8.6M246.42-110.48c5.33.33 10.64-.87 16.01 4.5 8.7 8.7.13 17.25 8.83 25.95s17.26.14 25.96 8.84.13 17.25 8.83 25.95 17.26.14 25.96 8.84.14 17.25 8.84 25.95c8.7 8.71 17.25.14 25.95 8.84a16.7 16.7 0 0 1 1.87 2.22M267.24-119.88c1.84.63 3.68 1.68 5.53 3.54 8.7 8.7.14 17.26 8.84 25.96s17.26.13 25.96 8.83.13 17.26 8.83 25.96 17.26.13 25.96 8.83.13 17.26 8.83 25.96 17.26.13 25.96 8.83c2.54 2.54 3.61 5.07 4.07 7.61M285.92-122.92c3.79 7.41-1.39 14.76 6.04 22.19 8.7 8.7 17.25.14 25.95 8.84s.14 17.25 8.84 25.95 17.25.14 25.95 8.84.14 17.25 8.84 25.95 17.25.14 25.95 8.84c5.22 5.22 4.23 10.38 4.48 15.56M297.9-123.24c.04 4.05.32 8.08 4.4 12.16 8.7 8.7 17.26.14 25.96 8.84s.13 17.25 8.83 25.95 17.26.14 25.96 8.84.13 17.26 8.83 25.96 17.26.13 25.96 8.83c8.27 8.27.94 16.42 7.69 24.68M311.41-122.8c.36.45.78.92 1.24 1.38 8.7 8.7 17.25.13 25.95 8.83s.14 17.26 8.84 25.96 17.25.13 25.96 8.83c8.7 8.7.13 17.26 8.83 25.96s17.26.13 25.96 8.83c8.7 8.71.13 17.26 8.83 25.96s17.26.14 25.96 8.84c.4.4.77.8 1.09 1.2M348.67-123.2c.09.08.18.17.27.26 8.7 8.7.14 17.25 8.83 25.95 8.71 8.7 17.26.14 25.96 8.84s.14 17.25 8.84 25.95 17.25.14 25.95 8.84.14 17.26 8.84 25.96 17.26.13 25.96 8.83c3.74 3.74 4.29 7.45 4.4 11.17M363.2-126.44c1.48 6.37-1.48 12.71 4.92 19.12 8.7 8.7 17.26.13 25.96 8.83s.13 17.26 8.83 25.96 17.26.13 25.96 8.83.13 17.26 8.84 25.96c8.7 8.7 17.25.14 25.95 8.84 6.72 6.72 3.14 13.36 5.17 20.05M374.05-130.9c.04 4.4-.01 8.8 4.42 13.23 8.7 8.7 17.25.13 25.95 8.84 8.7 8.7.14 17.25 8.84 25.95s17.25.14 25.95 8.84c8.71 8.7.14 17.25 8.84 25.95s17.26.14 25.96 8.84.14 17.26 8.84 25.96l.3.3M384.52-137.35c.27 3.1 1.17 6.2 4.29 9.32 8.7 8.7 17.26.14 25.96 8.84s.14 17.25 8.84 25.96c8.7 8.7 17.25.13 25.95 8.83s.14 17.26 8.84 25.96 17.25.13 25.95 8.83c8.71 8.71.14 17.26 8.84 25.96 1.42 1.42 2.85 2.39 4.27 3.04M395.03-146.38c.4 2.66 1.44 5.33 4.13 8.01 8.7 8.7 17.26.13 25.96 8.83s.13 17.26 8.83 25.96 17.26.13 25.96 8.83c8.7 8.71.13 17.26 8.84 25.96 8.7 8.7 17.25.14 25.95 8.84s.14 17.25 8.84 25.96c1.95 1.95 3.88 3.03 5.81 3.62M405.19-158.37c.23 3.21 1.09 6.43 4.32 9.65 8.7 8.7 17.25.14 25.95 8.84s.14 17.25 8.84 25.95 17.25.14 25.95 8.84c8.71 8.7.14 17.25 8.84 25.96 8.7 8.7 17.26.13 25.96 8.83s.13 17.26 8.84 25.96c1.63 1.63 3.27 2.66 4.89 3.31M415-177.84c1.31 6.25-1.44 12.48 4.85 18.77 8.7 8.71 17.26.14 25.96 8.84s.13 17.26 8.83 25.96 17.26.13 25.96 8.83.14 17.26 8.84 25.96 17.25.13 25.95 8.83c8.71 8.71.14 17.26 8.84 25.96.66.66 1.31 1.21 1.97 1.68M418.92-197.38c.82.53 1.62 1.2 2.44 2.02 8.7 8.7.14 17.26 8.84 25.96s17.25.13 25.96 8.83c8.7 8.7.13 17.26 8.83 25.96s17.26.14 25.96 8.84.13 17.25 8.83 25.95 17.26.14 25.96 8.84c7.5 7.5 2.17 14.9 6.13 22.37M419.47-210.11c4.07.05 8.14.3 12.25 4.41 8.7 8.7.14 17.25 8.83 25.95 8.71 8.7 17.26.14 25.96 8.84s.14 17.25 8.84 25.95 17.25.14 25.95 8.84.14 17.26 8.84 25.96c8.16 8.16 16.21 1.11 24.37 7.42M419.16-222.48c7.65 4.52 15.22-1.25 22.9 6.43 8.7 8.7.13 17.26 8.83 25.96s17.26.13 25.96 8.83.13 17.26 8.83 25.96 17.26.13 25.96 8.83.13 17.26 8.84 25.96c4.51 4.51 8.99 4.38 13.47 4.42M419.04-259.57c6.27 8.15-.74 16.19 7.41 24.34 8.7 8.7 17.25.13 25.95 8.84 8.7 8.69.14 17.25 8.84 25.95s17.25.13 25.95 8.84c8.7 8.7.14 17.25 8.84 25.95s17.25.14 25.95 8.84c8.71 8.7.14 17.25 8.84 25.95.92.92 1.84 1.64 2.74 2.21M422-275.21c1.99.6 3.97 1.68 5.97 3.68 8.7 8.7.13 17.25 8.83 25.95s17.26.14 25.96 8.84.13 17.25 8.83 25.95 17.26.14 25.96 8.84.14 17.26 8.84 25.96 17.25.13 25.95 8.83c3.05 3.05 3.97 6.07 4.28 9.1M426.16-286.27c4.05.04 8.09.33 12.15 4.4 8.7 8.7.14 17.26 8.84 25.96s17.26.13 25.96 8.83.13 17.26 8.83 25.96 17.26.13 25.96 8.83.13 17.26 8.83 25.96 17.26.13 25.96 8.83c.46.46.88.93 1.24 1.38M432.18-296.75c5.49.45 10.96-.99 16.48 4.53 8.7 8.7.14 17.26 8.84 25.96s17.25.14 25.95 8.84.14 17.25 8.84 25.95 17.25.14 25.95 8.84.14 17.25 8.84 25.95c8.52 8.52 16.91.48 25.42 8.34"/><path class="st1" d="M156 649.06c.39 2.71 1.42 5.45 4.16 8.18 8.7 8.7 17.26.14 25.96 8.84s.13 17.25 8.84 25.96c8.7 8.7 17.25.13 25.96 8.84 8.7 8.7.13 17.25 8.84 25.96 8.7 8.7 17.26.13 25.96 8.84 8.7 8.7.13 17.25 8.84 25.96 1.82 1.82 3.62 2.88 5.43 3.5M167.16 641.94c.65 1.64 1.67 3.3 3.34 4.95 8.7 8.7 17.25.14 25.95 8.84 8.71 8.7.14 17.26 8.84 25.96s17.26.14 25.96 8.84c8.71 8.7.14 17.26 8.84 25.96 8.71 8.7 17.26.14 25.96 8.84 8.71 8.7.14 17.26 8.84 25.96 3.48 3.48 6.94 4.2 10.39 4.36h.01M180.78 636.49l.06.06c8.7 8.7 17.26.13 25.96 8.83 8.7 8.71.14 17.26 8.84 25.96 8.7 8.71 17.26.14 25.96 8.84 8.7 8.71.14 17.26 8.84 25.96 8.7 8.71 17.26.14 25.96 8.84 8.7 8.71.14 17.26 8.84 25.97 8.35 8.35 16.59.78 24.94 7.89M214.51 632.9c.88.56 1.76 1.26 2.63 2.14 8.7 8.7.13 17.26 8.84 25.96 8.7 8.7 17.25.13 25.96 8.84 8.7 8.7.13 17.26 8.84 25.96 8.7 8.7 17.25.14 25.96 8.84 8.7 8.7.13 17.26 8.84 25.96 8.7 8.7 17.25.13 25.95 8.84 2.88 2.88 3.86 5.74 4.22 8.59M231.73 633.56c.62 5.69-1.14 11.36 4.59 17.09 8.7 8.7 17.26.14 25.96 8.84s.14 17.26 8.84 25.96 17.26.14 25.96 8.84c8.71 8.7.14 17.26 8.84 25.96s17.26.14 25.96 8.84c6.44 6.44 3.42 12.81 4.95 19.21M242.88 633.92c.56 2.13 1.65 4.25 3.79 6.39 8.7 8.7 17.26.13 25.96 8.83 8.7 8.71.14 17.26 8.84 25.97 8.7 8.7 17.26.13 25.96 8.84 8.7 8.7.14 17.25 8.84 25.96 8.7 8.7 17.26.13 25.96 8.83s.13 17.26 8.83 25.96c3.8 3.8 7.59 4.31 11.36 4.4.2.01.4.01.62 0M261.54 633.1c7.15 3.1 14.24-1.49 21.43 5.69 8.71 8.7.14 17.26 8.84 25.96 8.71 8.7 17.26.14 25.96 8.84 8.71 8.7.14 17.26 8.85 25.96 8.7 8.7 17.25.14 25.95 8.84s.14 17.25 8.84 25.95c8.7 8.71 17.26.14 25.96 8.84.88.88 1.58 1.76 2.15 2.63M288.53 625.18c1.59.65 3.19 1.65 4.79 3.26 8.7 8.71.14 17.26 8.84 25.96 8.7 8.71 17.26.14 25.96 8.84 8.7 8.71.14 17.26 8.84 25.96s17.26.14 25.96 8.84.13 17.26 8.84 25.96c8.7 8.7 17.25.13 25.95 8.84 2.8 2.8 3.82 5.61 4.2 8.39M301.88 616.54c.6.45 1.19.97 1.79 1.56 8.7 8.7.13 17.25 8.84 25.96 8.7 8.7 17.25.13 25.96 8.84 8.7 8.7.13 17.25 8.84 25.96 8.7 8.7 17.25.13 25.95 8.83 8.71 8.71.14 17.26 8.84 25.96s17.26.14 25.96 8.84c4.23 4.23 4.38 8.43 4.42 12.62M312.59 606.48c.47.37.95.8 1.42 1.27 8.71 8.7.14 17.26 8.84 25.96 8.71 8.7 17.26.14 25.96 8.84 8.71 8.7.14 17.26 8.84 25.96s17.26.14 25.96 8.84.14 17.25 8.84 25.96c8.7 8.7 17.26.13 25.96 8.83 4.86 4.86 4.33 9.68 4.44 14.51M321.42 595.07c.98.59 1.96 1.35 2.94 2.33 8.7 8.71.14 17.26 8.84 25.96 8.7 8.71 17.26.14 25.96 8.84 8.7 8.71.14 17.26 8.84 25.97 8.7 8.7 17.26.13 25.96 8.83s.13 17.26 8.83 25.96c8.71 8.7 17.26.14 25.96 8.84 4.48 4.47 4.39 8.91 4.42 13.35M327.66 583.11c2.34.5 4.69 1.6 7.04 3.95 8.71 8.7.14 17.26 8.85 25.96 8.7 8.7 17.25.14 25.96 8.84 8.7 8.7.13 17.26 8.84 25.96 8.7 8.7 17.25.13 25.95 8.84 8.7 8.7.14 17.25 8.84 25.95 8.7 8.71 17.26.14 25.96 8.84 2.19 2.19 3.28 4.37 3.83 6.55M331.16 572.28c4.62.06 9.24-.22 13.89 4.43 8.7 8.7.14 17.26 8.84 25.96s17.26.14 25.96 8.84.14 17.26 8.84 25.96 17.26.14 25.96 8.84.14 17.26 8.84 25.96c8.16 8.16 16.2 1.12 24.35 7.41M333.22 560.33c7.4 3.78 14.74-1.4 22.18 6.03 8.7 8.71.14 17.26 8.84 25.97 8.7 8.7 17.26.13 25.96 8.84 8.7 8.7.14 17.25 8.84 25.96 8.7 8.7 17.25.13 25.96 8.83 8.7 8.7.13 17.26 8.83 25.96 5.08 5.08 10.12 4.28 15.16 4.46M333.19 523.99c4.84 7.76-1.17 15.42 6.6 23.19 8.71 8.7 17.26.14 25.96 8.84 8.71 8.7.14 17.26 8.84 25.96 8.71 8.7 17.26.14 25.96 8.84 8.71 8.7.14 17.26 8.85 25.96 8.7 8.7 17.25.14 25.95 8.84s.14 17.25 8.84 25.95c1.6 1.6 3.21 2.62 4.8 3.28M332.88 506.69c2.79.36 5.6 1.37 8.41 4.19 8.7 8.71.14 17.26 8.84 25.96 8.7 8.71 17.26.14 25.96 8.84 8.7 8.71.14 17.26 8.84 25.96 8.7 8.71 17.26.14 25.96 8.84 8.7 8.71.14 17.26 8.84 25.96 8.7 8.71 17.26.14 25.96 8.84 1.05 1.05 1.85 2.1 2.46 3.15M333.56 495.81c6.02.99 12.02-1.33 18.09 4.73 8.7 8.7.13 17.25 8.84 25.96 8.7 8.7 17.25.13 25.96 8.84 8.7 8.7.13 17.25 8.84 25.96 8.7 8.7 17.25.13 25.96 8.84 8.7 8.7.13 17.26 8.84 25.96 6.77 6.77 13.45 3.09 20.18 5.22M336.25 481.56c8.64 8.34 17.11 0 25.73 8.63 8.71 8.7.14 17.26 8.84 25.96s17.26.14 25.96 8.84c8.71 8.7.14 17.26 8.84 25.96 8.71 8.7 17.26.14 25.96 8.84 8.71 8.7.14 17.26 8.84 25.96 4.4 4.4 8.77 4.39 13.13 4.42M342.84 465.47c.62 1.85 1.68 3.68 3.54 5.54 8.7 8.7 17.26.13 25.96 8.83 8.7 8.71.14 17.26 8.84 25.96 8.7 8.71 17.26.14 25.96 8.84 8.7 8.71.14 17.26 8.84 25.97 8.7 8.7 17.26.13 25.96 8.83 8.7 8.71.14 17.26 8.84 25.97 2.63 2.63 5.25 3.68 7.86 4.11M352.48 451.79c.31 2.96 1.28 5.91 4.25 8.88 8.7 8.7 17.25.14 25.96 8.84 8.7 8.7.13 17.26 8.83 25.96 8.71 8.7 17.26.13 25.96 8.84 8.71 8.7.14 17.26 8.85 25.96 8.7 8.7 17.25.14 25.96 8.84 8.7 8.7.13 17.26 8.84 25.96 1.75 1.75 3.48 2.79 5.22 3.42M362.83 441.53v.01c.33 2.92 1.29 5.83 4.24 8.78 8.71 8.71 17.26.14 25.96 8.84s.14 17.26 8.84 25.96 17.26.14 25.96 8.84.14 17.26 8.84 25.96 17.26.14 25.96 8.84.14 17.26 8.84 25.96c1.66 1.66 3.32 2.69 4.97 3.33M373.67 433.72c.56 2.08 1.66 4.17 3.75 6.25 8.7 8.7 17.26.13 25.96 8.84 8.7 8.7.14 17.25 8.84 25.96 8.7 8.7 17.25.13 25.96 8.83 8.7 8.71.14 17.26 8.84 25.97 8.7 8.7 17.26.13 25.96 8.84 8.7 8.7.14 17.25 8.84 25.96 2.59 2.59 5.16 3.64 7.74 4.09M386.14 427.75c.46.63 1.01 1.25 1.63 1.88 8.7 8.7 17.25.14 25.95 8.84 8.71 8.7.14 17.26 8.84 25.96 8.71 8.7 17.26.14 25.96 8.84 8.71 8.7.14 17.26 8.84 25.96 8.71 8.7 17.26.14 25.96 8.84 8.71 8.7.14 17.26 8.84 25.96 7.08 7.07 14.06 2.73 21.09 5.55M405.34 423.27c6.24 1.28 12.45-1.43 18.72 4.84 8.7 8.71.14 17.26 8.84 25.96 8.7 8.71 17.26.14 25.96 8.84 8.7 8.71.14 17.26 8.84 25.96 8.7 8.71 17.26.14 25.96 8.84 8.7 8.71.14 17.26 8.84 25.96 8.7 8.71 17.26.14 25.96 8.84 1.73 1.73 2.76 3.44 3.4 5.15M437.83 422.95c2.56 6.92-1.54 13.8 5.43 20.77 8.7 8.7 17.25.13 25.96 8.84 8.7 8.7.13 17.25 8.84 25.96 8.7 8.7 17.25.13 25.96 8.84 8.7 8.7.13 17.26 8.84 25.96 8.7 8.7 17.25.13 25.95 8.83 5.23 5.23 4.23 10.39 4.48 15.58M449.26 423.42c.21 3.31 1.01 6.63 4.34 9.96 8.7 8.7 17.26.14 25.96 8.84 8.71 8.7.14 17.26 8.84 25.96 8.71 8.7 17.26.14 25.96 8.84 8.71 8.7.14 17.26 8.84 25.96s17.26.14 25.96 8.84.14 17.25 8.84 25.96c.21.21.41.4.63.6M464.26 423.33c8.59 8.2 17.05-.06 25.64 8.53 8.7 8.71.14 17.26 8.84 25.97 8.7 8.7 17.26.13 25.96 8.83 8.7 8.71.14 17.26 8.84 25.97 8.7 8.7 17.26.13 25.96 8.83s.13 17.26 8.83 25.96c8.71 8.7 17.26.14 25.96 8.84.13.13.25.26.37.38M492.92 417.51h.01c2.43.48 4.87 1.57 7.31 4.01 8.71 8.7.14 17.26 8.85 25.96 8.7 8.7 17.25.14 25.96 8.84 8.7 8.7.13 17.26 8.84 25.96 8.7 8.7 17.25.14 25.95 8.84s.14 17.25 8.84 25.95c8.7 8.71 17.26.14 25.96 8.84 2.21 2.21 3.3 4.4 3.84 6.6M508.21 409.19c.8.53 1.58 1.18 2.38 1.98 8.7 8.7.14 17.26 8.84 25.96 8.7 8.71 17.26.14 25.96 8.84 8.7 8.71.14 17.26 8.84 25.96s17.26.14 25.96 8.84.14 17.26 8.84 25.96 17.25.13 25.96 8.84c3.82 3.82 4.31 7.62 4.4 11.41M519.6 399.61c.44.36.9.77 1.34 1.21 8.7 8.71.13 17.26 8.84 25.97 8.7 8.7 17.26.13 25.96 8.84 8.7 8.7.14 17.25 8.84 25.96 8.7 8.7 17.25.13 25.96 8.83 8.7 8.7.13 17.26 8.83 25.96s17.26.14 25.96 8.84c4.75 4.75 4.36 9.46 4.43 14.16M529.1 388.65c.73.5 1.45 1.11 2.18 1.84 8.71 8.7.14 17.26 8.84 25.96 8.71 8.7 17.26.14 25.96 8.84 8.71 8.7.14 17.26 8.84 25.96 8.71 8.7 17.26.14 25.96 8.84s.14 17.25 8.84 25.95c8.7 8.71 17.26.14 25.96 8.84 4.75 4.75 4.36 9.46 4.43 14.17M536.3 376.67c1.78.63 3.55 1.68 5.33 3.46 8.7 8.71.14 17.26 8.84 25.96 8.7 8.71 17.26.14 25.96 8.84 8.7 8.71.14 17.26 8.84 25.96 8.7 8.71 17.26.14 25.96 8.84s.13 17.26 8.83 25.96c8.71 8.7 17.26.14 25.96 8.84 3.21 3.21 4.08 6.39 4.32 9.57M540.62 365.39c3.77.09 7.55.6 11.36 4.4 8.7 8.7.13 17.25 8.84 25.96 8.7 8.7 17.25.13 25.96 8.84 8.7 8.7.13 17.26 8.84 25.96 8.7 8.7 17.25.13 25.95 8.83 8.71 8.71.14 17.26 8.84 25.96s17.26.14 25.96 8.84c.3.3.58.6.84.9M543.04 354.47c6.43 1.57 12.81-1.49 19.28 4.97 8.71 8.7.14 17.26 8.84 25.96 8.71 8.7 17.26.14 25.96 8.84 8.71 8.7.14 17.26 8.84 25.96s17.26.14 25.96 8.84.14 17.25 8.84 25.96c6.19 6.19 12.32 3.63 18.48 4.79M544.31 337.21c.61 1.01 1.38 2.03 2.4 3.05 8.7 8.71 17.26.14 25.96 8.84 8.7 8.71.14 17.26 8.84 25.97 8.7 8.7 17.26.13 25.96 8.83 8.7 8.71.14 17.26 8.84 25.97 8.7 8.7 17.26.13 25.96 8.83s.13 17.26 8.83 25.96c2.8 2.8 5.6 3.81 8.38 4.19M543.24 300.62c1.65.65 3.32 1.67 4.98 3.34 8.7 8.7.13 17.26 8.83 25.96 8.71 8.7 17.26.14 25.96 8.84 8.71 8.7.14 17.26 8.85 25.96 8.7 8.7 17.25.14 25.96 8.84 8.7 8.7.13 17.26 8.84 25.96 8.7 8.7 17.25.14 25.95 8.84 7.58 7.58 2.07 15.03 6.25 22.58M543.63 289.16c4.97.16 9.94-.55 14.94 4.45 8.7 8.7.14 17.26 8.84 25.96s17.26.14 25.96 8.84.14 17.26 8.84 25.96c8.7 8.71 17.26.14 25.96 8.84 8.7 8.71.14 17.26 8.84 25.96 7.65 7.65 15.19 1.96 22.81 6.38M545.37 276.43c7.87 5.26 15.66-1.06 23.54 6.84 8.7 8.7.13 17.25 8.84 25.96 8.7 8.7 17.25.13 25.96 8.84 8.7 8.7.13 17.25 8.84 25.96 8.7 8.7 17.26.13 25.96 8.84 8.7 8.7.14 17.25 8.84 25.96 5.15 5.15 10.26 4.25 15.38 4.46M550.56 260.4c.64 1.23 1.52 2.45 2.75 3.68 8.7 8.7 17.25.14 25.95 8.84 8.71 8.7.14 17.26 8.84 25.96 8.71 8.7 17.26.14 25.96 8.84 8.71 8.7.14 17.26 8.84 25.96 8.71 8.7 17.26.14 25.96 8.84 8.71 8.7.14 17.26 8.84 25.96 3.15 3.14 6.25 4.04 9.37 4.3M559.49 245.54c.38 2.72 1.41 5.46 4.16 8.2 8.7 8.7 17.26.13 25.96 8.83 8.7 8.71.14 17.26 8.84 25.96 8.7 8.71 17.26.14 25.96 8.84 8.7 8.71.14 17.26 8.84 25.96 8.7 8.71 17.26.14 25.96 8.84 8.7 8.71.14 17.26 8.84 25.96 1.95 1.95 3.89 3.04 5.83 3.63M569.72 234.26c.29 3.04 1.22 6.07 4.28 9.13 8.7 8.7 17.26.14 25.96 8.84s.13 17.26 8.84 25.96c8.7 8.7 17.25.13 25.96 8.84 8.7 8.7.13 17.25 8.84 25.96 8.7 8.7 17.25.14 25.96 8.84 8.7 8.7.13 17.26 8.84 25.96 1.6 1.6 3.21 2.62 4.8 3.27M580.33 225.7c.48 2.44 1.56 4.89 4.01 7.34 8.71 8.71 17.26.14 25.96 8.84 8.71 8.7.14 17.26 8.84 25.96s17.26.14 25.96 8.84.14 17.26 8.84 25.96c8.71 8.7 17.26.14 25.96 8.84 8.71 8.7.14 17.26 8.84 25.96 2.1 2.1 4.2 3.2 6.28 3.76M592.02 219.17c.64 1.18 1.49 2.35 2.67 3.53 8.7 8.7 17.26.13 25.96 8.84 8.7 8.7.14 17.25 8.84 25.95 8.7 8.71 17.26.14 25.96 8.84 8.7 8.71.14 17.26 8.84 25.97 8.7 8.7 17.26.13 25.96 8.84 8.7 8.7.14 17.25 8.84 25.96 5.13 5.13 10.23 4.25 15.33 4.46M607.28 214.23c7.93 5.48 15.76-.99 23.72 6.96 8.7 8.7.13 17.26 8.83 25.96 8.71 8.7 17.26.14 25.96 8.84 8.71 8.7.14 17.26 8.85 25.96 8.7 8.7 17.25.14 25.96 8.84 8.7 8.7.13 17.26 8.84 25.96 8.7 8.7 17.25.14 25.95 8.84.64.64 1.17 1.26 1.62 1.9M642.63 212.29c6.51 8.2-.67 16.29 7.55 24.5 8.7 8.7 17.26.14 25.96 8.84s.14 17.26 8.84 25.96c8.7 8.71 17.26.14 25.96 8.84 8.7 8.71.14 17.26 8.84 25.96s17.26.14 25.96 8.84c4.01 4.01 4.35 8.01 4.41 12M656.09 212.88c.05 4.51-.12 9.03 4.43 13.58 8.7 8.7 17.25.13 25.96 8.84 8.7 8.7.13 17.25 8.84 25.96 8.7 8.7 17.26.13 25.96 8.84 8.7 8.7.14 17.25 8.84 25.96 8.7 8.7 17.25.13 25.96 8.83 7.64 7.64 1.97 15.16 6.35 22.77M668.49 213.1c.6 1 1.36 2 2.37 3.01 8.71 8.7 17.26.14 25.96 8.84 8.71 8.7.14 17.26 8.84 25.96 8.71 8.7 17.26.14 25.96 8.84 8.71 8.7.14 17.26 8.84 25.96 8.71 8.7 17.26.14 25.96 8.84s.14 17.25 8.84 25.96c7.87 7.87 15.63 1.6 23.47 6.78h.01M693.87 210.17c4.42.04 8.84-.04 13.3 4.42 8.7 8.71.14 17.26 8.84 25.96 8.7 8.71 17.26.14 25.96 8.84 8.7 8.71.14 17.26 8.84 25.96 8.7 8.71 17.26.14 25.96 8.84s.13 17.26 8.83 25.96c8.71 8.7 17.26.14 25.96 8.84 1.55 1.55 2.55 3.1 3.21 4.64M714.17 201.68c1.11.63 2.23 1.45 3.35 2.57 8.7 8.7.13 17.26 8.84 25.96 8.7 8.7 17.25.14 25.96 8.84 8.7 8.7.13 17.26 8.84 25.96 8.7 8.7 17.25.13 25.95 8.84 8.7 8.7.14 17.25 8.84 25.95s17.26.14 25.96 8.84c3.34 3.34 4.14 6.66 4.34 9.98M726.4 192.6c.48.37.98.82 1.46 1.3 8.7 8.7.14 17.26 8.84 25.96s17.26.14 25.96 8.84c8.71 8.7.14 17.26 8.84 25.96s17.26.14 25.96 8.84.14 17.26 8.84 25.96 17.25.13 25.96 8.84c4.53 4.53 4.38 9.02 4.42 13.51M736.53 182.08c.55.42 1.11.91 1.67 1.47 8.7 8.71.14 17.26 8.84 25.97 8.7 8.7 17.26.13 25.96 8.84 8.7 8.7.14 17.25 8.84 25.96 8.7 8.7 17.26.13 25.96 8.83s.13 17.26 8.83 25.96c8.71 8.7 17.26.14 25.96 8.84 4.87 4.87 4.34 9.69 4.44 14.53M744.6 170.33c1.31.65 2.62 1.56 3.94 2.89 8.71 8.7.14 17.26 8.84 25.96 8.71 8.7 17.26.14 25.96 8.84 8.71 8.7.14 17.26 8.85 25.96 8.7 8.7 17.25.14 25.95 8.84s.14 17.25 8.84 25.95c8.7 8.71 17.26.14 25.96 8.84 3.98 3.99 4.35 7.95 4.41 11.91M749.88 158.61c3 .3 6 1.24 9.02 4.26 8.7 8.7.14 17.26 8.84 25.96 8.7 8.71 17.26.14 25.96 8.84 8.7 8.71.14 17.26 8.84 25.96s17.26.14 25.96 8.84.13 17.26 8.84 25.96c8.7 8.7 17.25.13 25.96 8.84 1.2 1.2 2.07 2.39 2.7 3.59M752.75 147.98c5.49.45 10.96-1 16.49 4.54 8.7 8.7.13 17.25 8.84 25.96 8.7 8.7 17.26.13 25.96 8.84 8.7 8.7.13 17.25 8.84 25.96 8.7 8.7 17.25.13 25.95 8.83 8.71 8.71.14 17.26 8.84 25.96 7.24 7.24 14.4 2.51 21.62 5.77M754.49 134.13c8.4 7.35 16.69-.37 25.1 8.04 8.71 8.7.14 17.26 8.84 25.96 8.71 8.7 17.26.14 25.96 8.84 8.71 8.7.14 17.26 8.84 25.96s17.26.14 25.96 8.84.14 17.25 8.84 25.96c3.97 3.97 7.93 4.34 11.87 4.41M753.76 95.79c.45.36.92.78 1.38 1.24 8.7 8.71.14 17.26 8.84 25.96 8.7 8.71 17.26.14 25.96 8.84 8.7 8.71.14 17.26 8.84 25.96 8.7 8.71 17.26.14 25.96 8.84 8.7 8.71.14 17.26 8.84 25.97 8.7 8.7 17.26.13 25.96 8.83s.13 17.26 8.83 25.96c.42.42.85.8 1.26 1.14M753.84 82.28c3.87.07 7.75.5 11.65 4.41 8.7 8.7.13 17.26 8.84 25.96 8.7 8.7 17.25.13 25.96 8.84 8.7 8.7.13 17.26 8.84 25.96 8.7 8.7 17.25.14 25.96 8.84 8.7 8.7.13 17.26 8.84 25.96 8.56 8.56 17 .38 25.56 8.46M754.92 70.86c6.98 2.67 13.9-1.53 20.91 5.48 8.7 8.7.14 17.26 8.84 25.96s17.26.14 25.96 8.84.14 17.26 8.84 25.96 17.26.14 25.96 8.84c8.71 8.7.14 17.26 8.84 25.96 5.96 5.96 11.85 3.81 17.77 4.68M758.76 55.49c.42.55.91 1.11 1.47 1.67 8.7 8.7 17.26.13 25.96 8.84 8.7 8.7.14 17.25 8.84 25.96 8.7 8.7 17.26.13 25.96 8.83 8.7 8.71.14 17.26 8.84 25.97 8.7 8.7 17.26.13 25.96 8.84 8.7 8.7.14 17.25 8.84 25.96 3.74 3.74 7.45 4.29 11.17 4.39M766.62 39.76v.01c.51 2.35 1.6 4.68 3.96 7.04 8.7 8.7 17.25.14 25.96 8.84 8.7 8.7.13 17.26 8.83 25.96 8.71 8.7 17.26.14 25.96 8.84 8.71 8.7.14 17.26 8.84 25.96 8.71 8.7 17.26.14 25.96 8.84 8.71 8.7.14 17.26 8.85 25.96 2.24 2.24 4.48 3.34 6.71 3.87M776.65 27.29c.28 3.06 1.2 6.11 4.27 9.18 8.7 8.7 17.26.13 25.96 8.83 8.7 8.71.14 17.26 8.84 25.96s17.26.14 25.96 8.84c8.7 8.71.14 17.26 8.84 25.96 8.7 8.71 17.26.14 25.96 8.84 8.7 8.71.14 17.26 8.84 25.96 1.63 1.63 3.27 2.66 4.9 3.31"/></g></g></svg>