<?xml version="1.0" encoding="utf-8"?>
<!-- Generator: Adobe Illustrator 27.7.0, SVG Export Plug-In . SVG Version: 6.00 Build 0)  -->
<svg version="1.1" id="Capa_1" xmlns="http://www.w3.org/2000/svg" xmlns:xlink="http://www.w3.org/1999/xlink" x="0px" y="0px"
	 viewBox="0 0 553.8 476.2" style="enable-background:new 0 0 553.8 476.2;" xml:space="preserve">
<style type="text/css">
	.st0{fill:#1A4998;}
	.st1{fill:#FFFFFF;}
	.st2{font-family:'Inter-Regular';}
	.st3{font-size:17px;}
	.st4{fill:#FBB91C;}
	.st5{font-family:'Inter-ExtraBoldItalic';}
	.st6{font-size:15px;}
	.st7{fill:#FFFFFF;stroke:#E7E6E6;stroke-width:2;stroke-miterlimit:10;}
	.st8{font-family:'Inter-Medium';}
	.st9{font-size:13px;}
	.st10{font-family:'TenorSans';}
	.st11{font-size:33.9309px;}
	.st12{font-size:24.9721px;}
	.st13{font-size:27px;}
	.st14{fill:#72CBF4;}
	.st15{fill:#DF4D3C;}
	.st16{fill:#C74636;}
	.st17{fill:#FAB633;}
	.st18{fill:#F7A641;}
	.st19{font-size:15.3609px;}
</style>
<g>
	<path class="st0" d="M377.8,89.8H172.4c-6,0-10.9-4.9-10.9-10.9V40.8c0-6,4.9-10.9,10.9-10.9h205.4c6,0,10.9,4.9,10.9,10.9v38.1
		C388.6,84.9,383.7,89.8,377.8,89.8z"/>
	<text transform="matrix(1 0 0 1 188.1114 66.8453)" class="st1 st2 st3">TU TERRENO AHORA</text>
	<path class="st4" d="M322.7,43.4h-95.2c-6.6,0-12-5.4-12-12V19c0-6.6,5.4-12,12-12h95.2c6.6,0,12,5.4,12,12v12.4
		C334.7,38,329.3,43.4,322.7,43.4z"/>
	<text transform="matrix(1 0 0 1 246.8506 30.8779)" class="st1 st5 st6"> OBTÉN</text>
</g>
<g>
	<path class="st7" d="M247.6,269.2c0,9.4,7,17,15.7,17v6.5c0,8.1-6,14.6-13.5,14.6H23.5c-7.5,0-13.5-6.5-13.5-14.6v-6.5
		c8.6,0,15.7-7.6,15.7-17s-7-17-15.7-17v-6c0-8.1,6-14.6,13.5-14.6h226.3c7.5,0,13.5,6.5,13.5,14.6v6
		C254.6,252.2,247.6,259.8,247.6,269.2z"/>
	<g>
		<text transform="matrix(1 0 0 1 77.8831 258.6352)" class="st0 st8 st9"> Meses para pagar</text>
	</g>
	<text transform="matrix(1 0 0 1 116.7922 291.0474)" class="st10 st11">36</text>
	<path class="st7" d="M524.4,269.2c0,9.4,7,17,15.7,17v6.5c0,8.1-6,14.6-13.5,14.6H300.3c-7.5,0-13.5-6.5-13.5-14.6v-6.5
		c8.6,0,15.7-7.6,15.7-17s-7-17-15.7-17v-6c0-8.1,6-14.6,13.5-14.6h226.3c7.5,0,13.5,6.5,13.5,14.6v6
		C531.5,252.2,524.4,259.8,524.4,269.2z"/>
	<g>
		<text transform="matrix(1 0 0 1 332.0504 258.6352)" class="st0 st8 st9"> Cuotas mensuales desde</text>
	</g>
	<text transform="matrix(1 0 0 1 387.1935 288.36)" class="st10 st3">$</text>
	<text transform="matrix(1 0 0 1 397.9835 288.36)" class="st10 st12">225</text>
</g>
<g>
	<path class="st0" d="M480.1,179.9h-457c-9.8,0-17.8-8-17.8-17.8v-38.5c0-9.8,8-17.8,17.8-17.8h457c9.8,0,17.8,8,17.8,17.8V162
		C497.9,171.9,489.9,179.9,480.1,179.9z"/>
	<text transform="matrix(1 0 0 1 119.3374 160.2815)" class="st1 st10 st13">$27,100  o   S/102,980</text>
	<g>
		<text transform="matrix(1 0 0 1 160.1035 129.0725)" class="st14 st5 st9"> PRECIO AL CONTADO DESDE</text>
	</g>
	<g>
		<polygon class="st15" points="480.7,160.1 462.7,204.2 476.7,200.2 482.7,212.2 500.8,170.1 		"/>
		<polygon class="st15" points="524.8,158.1 504.8,170.1 522.8,212.2 528.8,200.2 542.8,204.2 		"/>
	</g>
	<g>
		<polygon class="st16" points="480.7,160.1 474.1,176.3 474.5,176.4 478.7,189.7 492.4,186.8 493.3,187.6 500.8,170.1 		"/>
		<polygon class="st16" points="504.8,170.1 512.2,187.6 513.1,186.8 526.8,189.7 531.1,176.4 531.8,176.2 524.8,158.1 		"/>
	</g>
	<g>
		<polygon class="st17" points="502.8,96 513.1,105.4 526.8,102.5 531.1,115.8 544.4,120.1 541.5,133.7 550.8,144.1 541.5,154.5 
			544.4,168.1 531.1,172.4 526.8,185.7 513.1,182.8 502.8,192.1 492.4,182.8 478.7,185.7 474.5,172.4 461.1,168.1 464.1,154.5 
			454.7,144.1 464.1,133.7 461.1,120.1 474.5,115.8 478.7,102.5 492.4,105.4 		"/>
		<path class="st17" d="M544.8,113.7L544.8,113.7c-0.7-4.1-3.9-7.3-8-8l0,0c4.1-0.7,7.3-3.9,8-8l0,0c0.7,4.1,3.9,7.3,8,8l0,0
			C548.7,106.4,545.5,109.6,544.8,113.7z"/>
	</g>
	<path class="st18" d="M550.8,144.1l-9.4-10.4l2.9-13.7l-10.3-3.3c-11.2,31-37.9,48.6-58.9,57.9l3.6,11.1l13.7-2.9l10.4,9.4
		l10.4-9.4l13.7,2.9l4.3-13.3l13.3-4.3l-2.9-13.7L550.8,144.1z"/>
	<g>
		<text transform="matrix(1 0 0 1 474.1055 135.166)" class="st5 st9"> Sepáralo</text>
	</g>
	<g>
		<path d="M482.6,150.1c0.6-0.2,1.1-0.4,1.6-0.5c0.5-0.1,1-0.2,1.6-0.2c1,0,2,0.2,2.9,0.5c0.9,0.3,1.6,0.8,2.3,1.4s1.2,1.4,1.5,2.3
			c0.4,0.9,0.6,1.9,0.6,2.9c0,1.3-0.2,2.5-0.7,3.5s-1,1.9-1.8,2.6c-0.8,0.7-1.6,1.2-2.7,1.6s-2.1,0.6-3.2,0.6c-1,0-1.9-0.1-2.7-0.4
			c-0.8-0.3-1.5-0.7-2.1-1.2s-1.1-1.1-1.4-1.8c-0.4-0.7-0.5-1.4-0.6-2.2h2.3c0,0.6,0.1,1.1,0.4,1.6s0.5,0.9,0.9,1.3s0.8,0.7,1.4,0.9
			s1.1,0.3,1.8,0.3c0.6,0,1.2-0.1,1.9-0.4s1.2-0.6,1.7-1.2c0.5-0.5,0.9-1.2,1.2-2.1s0.5-1.9,0.5-3.1c0-1.7-0.5-3.1-1.4-4.1
			c-0.9-1.1-2.2-1.6-4-1.6c-0.4,0-1,0-1.8,0.1s-1.6,0.4-2.5,0.8l2.9-10h9.7l-0.6,1.8h-7.7L482.6,150.1z"/>
		<path d="M497.3,153.4c0-0.6,0-1.3,0.1-2.2c0.1-0.8,0.3-1.7,0.5-2.5c0.2-0.9,0.5-1.7,0.9-2.6c0.4-0.8,0.8-1.6,1.4-2.2
			c0.5-0.6,1.2-1.2,2-1.6s1.7-0.6,2.7-0.6c1,0,1.9,0.2,2.7,0.6s1.5,0.9,2,1.6c0.6,0.6,1,1.4,1.4,2.2s0.7,1.7,0.9,2.6
			c0.2,0.9,0.4,1.7,0.5,2.5c0.1,0.8,0.1,1.5,0.1,2.2c0,1.4-0.2,2.7-0.5,4.1s-0.8,2.6-1.4,3.7s-1.4,2-2.4,2.7c-1,0.7-2.1,1-3.5,1
			s-2.5-0.4-3.4-1c-1-0.7-1.7-1.6-2.4-2.7s-1.1-2.4-1.4-3.7C497.4,156.1,497.3,154.7,497.3,153.4z M500.5,153.4c0,1.1,0,2.2,0.1,3.4
			s0.3,2.3,0.6,3.3c0.3,1,0.8,1.8,1.3,2.4s1.4,1,2.3,1c1,0,1.8-0.3,2.4-1c0.6-0.6,1-1.4,1.4-2.4s0.5-2.1,0.6-3.3
			c0.1-1.2,0.1-2.3,0.1-3.4c0-1.1,0-2.3-0.1-3.5c-0.1-1.2-0.3-2.3-0.6-3.3c-0.3-1-0.8-1.8-1.4-2.5c-0.6-0.6-1.4-1-2.4-1
			c-1,0-1.8,0.3-2.3,1s-1,1.5-1.3,2.5c-0.3,1-0.5,2.1-0.6,3.3C500.5,151.1,500.5,152.2,500.5,153.4z"/>
		<path d="M516.7,153.4c0-0.6,0-1.3,0.1-2.2c0.1-0.8,0.3-1.7,0.5-2.5c0.2-0.9,0.5-1.7,0.9-2.6c0.4-0.8,0.8-1.6,1.4-2.2
			s1.2-1.2,2-1.6s1.7-0.6,2.7-0.6c1,0,1.9,0.2,2.7,0.6s1.5,0.9,2,1.6s1,1.4,1.4,2.2s0.7,1.7,0.9,2.6c0.2,0.9,0.4,1.7,0.5,2.5
			c0.1,0.8,0.1,1.5,0.1,2.2c0,1.4-0.2,2.7-0.5,4.1s-0.8,2.6-1.4,3.7s-1.4,2-2.4,2.7c-1,0.7-2.1,1-3.5,1s-2.5-0.4-3.4-1
			c-1-0.7-1.7-1.6-2.4-2.7s-1.1-2.4-1.4-3.7C516.9,156.1,516.7,154.7,516.7,153.4z M520,153.4c0,1.1,0,2.2,0.1,3.4s0.3,2.3,0.6,3.3
			c0.3,1,0.8,1.8,1.3,2.4s1.4,1,2.3,1c1,0,1.8-0.3,2.4-1c0.6-0.6,1-1.4,1.4-2.4s0.5-2.1,0.6-3.3c0.1-1.2,0.1-2.3,0.1-3.4
			c0-1.1,0-2.3-0.1-3.5c-0.1-1.2-0.3-2.3-0.6-3.3c-0.3-1-0.8-1.8-1.4-2.5s-1.4-1-2.4-1c-1,0-1.8,0.3-2.3,1s-1,1.5-1.3,2.5
			c-0.3,1-0.5,2.1-0.6,3.3C520,151.1,520,152.2,520,153.4z"/>
	</g>
</g>
<text transform="matrix(1 0 0 1 196.3901 212.1748)" class="st2 st3"> o págalo en cuotas</text>
<g>
	<g>
		<path class="st18" d="M396.2,387.4c-14.7-2-24.2-14.6-22.3-29.4c2.2-16.3,17.4-29.5,34-29.5l76.8,0.1c1.3,0,2.7,0.1,4,0.3
			c14.7,2,24.2,14.6,22.3,29.4c-2.2,16.3-17.4,29.5-34,29.5l-76.8-0.1C398.8,387.6,397.5,387.5,396.2,387.4L396.2,387.4z"/>
		<path class="st18" d="M488.5,329.5c14.1,1.9,23.6,14,21.7,28.7l0,0c-2.1,16-17,28.9-33.3,28.9l-76.8-0.1c-1.3,0-2.6-0.1-3.9-0.2
			c-14.1-1.9-23.6-14-21.7-28.7l0,0c2.1-16,17-28.9,33.3-28.9l76.8,0.1C486,329.2,487.3,329.3,488.5,329.5 M488.7,328.1
			c-1.3-0.2-2.7-0.3-4.1-0.3l-128-0.1c-16.9,0-32.4,13.5-34.6,30.1c-2,15.2,7.8,28.2,22.9,30.2c1.3,0.2,54,0.3,55.3,0.3l76.8,0.1
			c16.9,0,32.4-13.5,34.6-30.1C513.6,343.1,503.8,330.1,488.7,328.1L488.7,328.1z"/>
	</g>
	<g>
		<text transform="matrix(1 0 0 1 347.5684 354.5182)" class="st5 st19"> APROVECHA LA</text>
		<text transform="matrix(1 0 0 1 347.5684 372.9482)" class="st5 st19">PREVENTA</text>
	</g>
	
		<image style="overflow:visible;enable-background:new    ;" width="2000" height="1334" xlink:href="C9DE5541.png"  transform="matrix(7.380000e-02 0 0 7.380000e-02 433.2528 315.0561)">
	</image>
</g>
<g>
	<path d="M472,148.4c0.5,0.3,1.1,0.5,1.9,0.5c1.1,0,1.7-0.6,1.7-1.4c0-0.8-0.4-1.2-1.5-1.6c-1.3-0.5-2.1-1.1-2.1-2.3
		c0-1.3,1-2.2,2.6-2.2c0.8,0,1.4,0.2,1.8,0.4l-0.3,0.9c-0.3-0.1-0.8-0.4-1.5-0.4c-1.1,0-1.5,0.7-1.5,1.2c0,0.8,0.5,1.1,1.6,1.6
		c1.4,0.5,2.1,1.2,2.1,2.4c0,1.2-0.9,2.3-2.8,2.3c-0.8,0-1.6-0.2-2.1-0.5L472,148.4z"/>
	<path d="M477.1,150.1l3.4-8.7h0.8l-3.4,8.7H477.1z"/>
</g>
</svg>
