<svg version="1.1" id="Capa_1" xmlns="http://www.w3.org/2000/svg" xmlns:xlink="http://www.w3.org/1999/xlink" x="0" y="0" viewBox="0 0 553.8 476.2" style="enable-background:new 0 0 553.8 476.2" xml:space="preserve"><style>.st0{fill:#1a4998}.st1{fill:#fff}.st2{font-family:&apos;Inter-Regular&apos;}.st3{font-size:17px}.st5{font-family:&apos;Inter-ExtraBoldItalic&apos;}.st7{fill:#fff;stroke:#e7e6e6;stroke-width:2;stroke-miterlimit:10}.st8{font-family:&apos;Inter-Medium&apos;}.st9{font-size:13px}.st10{font-family:&apos;TenorSans&apos;}.st13{font-size:18px}.st16{fill:#df4d3c}.st17{fill:#c74636}.st18{fill:#fab633}.st19{fill:#f7a641}.st22{font-size:14px}</style><path class="st0" d="M377.8 89.8H172.4c-6 0-10.9-4.9-10.9-10.9V40.8c0-6 4.9-10.9 10.9-10.9h205.4c6 0 10.9 4.9 10.9 10.9v38.1c-.1 6-5 10.9-10.9 10.9z"/><text transform="translate(188.111 66.845)" class="st1 st2 st3">TU TERRENO AHORA</text><path d="M322.7 43.4h-95.2c-6.6 0-12-5.4-12-12V19c0-6.6 5.4-12 12-12h95.2c6.6 0 12 5.4 12 12v12.4c0 6.6-5.4 12-12 12z" style="fill:#fbb91c"/><text transform="translate(246.85 30.878)" class="st1 st5" style="font-size:15px"> OBTÉN</text><path class="st7" d="M247.6 269.2c0 9.4 7 17 15.7 17v6.5c0 8.1-6 14.6-13.5 14.6H23.5c-7.5 0-13.5-6.5-13.5-14.6v-6.5c8.6 0 15.7-7.6 15.7-17s-7-17-15.7-17v-6c0-8.1 6-14.6 13.5-14.6h226.3c7.5 0 13.5 6.5 13.5 14.6v6c-8.7 0-15.7 7.6-15.7 17z"/><text transform="translate(77.883 258.635)" class="st0 st8 st9"> Meses para pagar</text><text transform="translate(117.25 291.047)" class="st10" style="font-size:33.9309px">48</text><path class="st7" d="M524.4 269.2c0 9.4 7 17 15.7 17v6.5c0 8.1-6 14.6-13.5 14.6H300.3c-7.5 0-13.5-6.5-13.5-14.6v-6.5c8.6 0 15.7-7.6 15.7-17s-7-17-15.7-17v-6c0-8.1 6-14.6 13.5-14.6h226.3c7.5 0 13.5 6.5 13.5 14.6v6c-8.6 0-15.7 7.6-15.7 17z"/><text transform="translate(332.05 258.635)" class="st0 st8 st9"> Cuotas mensuales desde</text><text transform="translate(387.193 288.36)" class="st10 st3">$</text><text transform="translate(397.983 288.36)" class="st10" style="font-size:24.9721px">252</text><path d="M521.7 400H28.4c-10.2 0-18.5-8.3-18.5-18.5v-37.1c0-10.2 8.3-18.5 18.5-18.5h493.3c10.2 0 18.5 8.3 18.5 18.5v37.1c0 10.1-8.3 18.5-18.5 18.5z"/><text transform="translate(134.464 369.332)" class="st1 st2 st13">¡RESERVA TU TERRENO AHORA!</text><path class="st0" d="M480.1 179.9h-457c-9.8 0-17.8-8-17.8-17.8v-38.5c0-9.8 8-17.8 17.8-17.8h457c9.8 0 17.8 8 17.8 17.8V162c0 9.9-8 17.9-17.8 17.9z"/><text transform="translate(128.247 160.281)" class="st1 st10" style="font-size:27px">$15100  o  S/.57380</text><text transform="translate(160.103 129.072)" class="st5 st9" style="fill:#72cbf4"> PRECIO AL CONTADO DESDE</text><path class="st16" d="m480.7 160.1-18 44.1 14-4 6 12 18.1-42.1zM524.8 158.1l-20 12 18 42.1 6-12 14 4z"/><path class="st17" d="m480.7 160.1-6.6 16.2.4.1 4.2 13.3 13.7-2.9.9.8 7.5-17.5zM504.8 170.1l7.4 17.5.9-.8 13.7 2.9 4.3-13.3.7-.2-7-18.1z"/><path class="st18" d="m502.8 96 10.3 9.4 13.7-2.9 4.3 13.3 13.3 4.3-2.9 13.6 9.3 10.4-9.3 10.4 2.9 13.6-13.3 4.3-4.3 13.3-13.7-2.9-10.3 9.3-10.4-9.3-13.7 2.9-4.2-13.3-13.4-4.3 3-13.6-9.4-10.4 9.4-10.4-3-13.6 13.4-4.3 4.2-13.3 13.7 2.9zM544.8 113.7c-.7-4.1-3.9-7.3-8-8 4.1-.7 7.3-3.9 8-8 .7 4.1 3.9 7.3 8 8-4.1.7-7.3 3.9-8 8z"/><path class="st19" d="m550.8 144.1-9.4-10.4 2.9-13.7-10.3-3.3c-11.2 31-37.9 48.6-58.9 57.9l3.6 11.1 13.7-2.9 10.4 9.4 10.4-9.4 13.7 2.9 4.3-13.3 13.3-4.3-2.9-13.7 9.2-10.3z"/><text transform="translate(474.106 135.166)" class="st5 st9"> Sepáralo</text><text transform="translate(467.69 157.11)" style="enable-background:new"><tspan x="0" y="0" class="st10 st13"> S/</tspan><tspan x="26.8" y="0" class="st10" style="font-size:21.9702px">500</tspan></text><text transform="translate(196.39 212.175)" class="st2 st3"> o págalo en cuotas</text><path class="st19" d="M412.5 463.7c-13.4-1.8-22.1-13.3-20.3-26.8 2-14.8 15.9-26.9 30.9-26.9l70 .1c1.2 0 2.4.1 3.6.2 13.4 1.8 22.1 13.3 20.3 26.8-2 14.8-15.9 26.9-30.9 26.9l-70-.1c-1.2 0-2.4-.1-3.6-.2z"/><path class="st19" d="M496.7 410.9c12.9 1.7 21.5 12.8 19.8 26.1-1.9 14.6-15.5 26.4-30.3 26.4l-70-.1c-1.2 0-2.4-.1-3.5-.2-12.9-1.7-21.5-12.8-19.8-26.1 1.9-14.6 15.5-26.4 30.3-26.4l70 .1c1.2 0 2.3.1 3.5.2m.2-1.2c-1.2-.2-2.5-.2-3.7-.2l-116.7-.1c-15.4 0-29.5 12.3-31.5 27.4-1.8 13.9 7.1 25.7 20.8 27.5 1.2.2 49.2.2 50.4.2l70 .1c15.4 0 29.5-12.3 31.6-27.4 1.7-13.9-7.2-25.7-20.9-27.5z"/><text transform="translate(368.23 433.72)" class="st5 st22"> APROVECHA LA</text><text transform="translate(368.23 450.52)" class="st5 st22">PREVENTA</text><image style="overflow:visible;enable-background:new" width="2000" height="1334" xlink:href="C9DE5542.png" transform="translate(446.322 397.755) scale(.0672)"/></svg>