<svg id="Capa_1" data-name="Capa 1" xmlns="http://www.w3.org/2000/svg" viewBox="0 0 500 499.9"><defs><style>.cls-1{fill:#fbb858}</style></defs><g id="Sun"><g id="Sun_Rays_Group" data-name="Sun Rays Group"><path class="cls-1" d="M249.96 499.9c-2.94 0-5.32-2.38-5.32-5.32v-97.65a5.333 5.333 0 0 1 5.33-5.32 5.31 5.31 0 0 1 5.31 5.32v97.65c0 2.94-2.39 5.32-5.33 5.32Z" id="Ray_of_Sun" data-name="Ray of Sun"/><path class="cls-1" d="M169.44 448.39a3.815 3.815 0 0 1-3.53-5.27l24.28-58.67c.8-1.95 3.04-2.87 4.98-2.07 1.95.8 2.87 3.04 2.07 4.98l-24.28 58.67a3.822 3.822 0 0 1-3.53 2.36Z" id="Ray_of_Sun-2" data-name="Ray of Sun"/><path class="cls-1" d="M76.97 428.71a5.311 5.311 0 0 1-3.75-9.07l69.06-69.24a5.311 5.311 0 0 1 7.52 0 5.311 5.311 0 0 1 0 7.52l-69.06 69.24a5.3 5.3 0 0 1-3.76 1.56Z" id="Ray_of_Sun-3" data-name="Ray of Sun"/><path class="cls-1" d="M55.55 334.82a3.81 3.81 0 0 1-3.52-2.35c-.81-1.95.11-4.18 2.05-4.99l58.61-24.46c1.95-.81 4.18.11 4.99 2.05.81 1.95-.11 4.18-2.05 4.99l-58.61 24.46c-.48.2-.98.29-1.47.29Z" id="Ray_of_Sun-4" data-name="Ray of Sun"/><path class="cls-1" d="M102.99 255.64H5.32c-2.94 0-5.32-2.38-5.32-5.32S2.38 245 5.32 245h97.67c2.94 0 5.32 2.38 5.32 5.32s-2.38 5.32-5.32 5.32Z" id="Ray_of_Sun-5" data-name="Ray of Sun"/><path class="cls-1" d="M330.5 447.94c-1.5 0-2.91-.89-3.52-2.36l-24.26-58.52c-.81-1.95.12-4.18 2.06-4.99 1.94-.8 4.18.12 4.98 2.06l24.26 58.52c.81 1.95-.12 4.18-2.06 4.99-.48.2-.97.29-1.46.29Z" id="Ray_of_Sun-6" data-name="Ray of Sun"/><path class="cls-1" d="M422.98 427.81c-1.36 0-2.72-.52-3.75-1.55l-69.05-68.87a5.311 5.311 0 0 1 0-7.52 5.311 5.311 0 0 1 7.52 0l69.05 68.87a5.311 5.311 0 0 1 0 7.52 5.3 5.3 0 0 1-3.76 1.56Z" id="Ray_of_Sun-7" data-name="Ray of Sun"/><path class="cls-1" d="M444.4 333.81c-.49 0-.98-.09-1.45-.29l-58.6-24.14a3.803 3.803 0 0 1-2.07-4.98c.8-1.95 3.04-2.87 4.98-2.08l58.6 24.14c1.95.8 2.88 3.03 2.07 4.98a3.822 3.822 0 0 1-3.53 2.36Z" id="Ray_of_Sun-8" data-name="Ray of Sun"/><path class="cls-1" d="M494.68 254.9H397c-2.93 0-5.32-2.38-5.32-5.32s2.38-5.32 5.32-5.32h97.68c2.93 0 5.32 2.38 5.32 5.32s-2.38 5.32-5.32 5.32Z" id="Ray_of_Sun-9" data-name="Ray of Sun"/><path class="cls-1" d="M250 108.3c-2.94 0-5.32-2.38-5.32-5.32V5.32c.02-2.94 2.4-5.32 5.33-5.32 2.94 0 5.32 2.38 5.32 5.32l-.02 97.67c0 2.94-2.38 5.32-5.31 5.32Z" id="Ray_of_Sun-10" data-name="Ray of Sun"/><path class="cls-1" d="M306.26 117.84a3.815 3.815 0 0 1-3.53-5.27L327 53.9c.81-1.95 3.04-2.88 4.98-2.07 1.95.8 2.87 3.04 2.07 4.98l-24.27 58.67a3.822 3.822 0 0 1-3.53 2.36Z" id="Ray_of_Sun-11" data-name="Ray of Sun"/><path class="cls-1" d="M353.95 151.07a5.311 5.311 0 0 1-3.76-9.07l69.08-69.22a5.311 5.311 0 0 1 7.52 0 5.311 5.311 0 0 1 0 7.52l-69.08 69.22a5.3 5.3 0 0 1-3.76 1.56Z" id="Ray_of_Sun-12" data-name="Ray of Sun"/><path class="cls-1" d="M385.82 197.19a3.81 3.81 0 0 1-3.52-2.35c-.81-1.95.11-4.18 2.05-4.99l58.61-24.44c1.95-.81 4.18.11 4.99 2.05.81 1.95-.11 4.18-2.05 4.99l-58.61 24.44c-.48.2-.98.29-1.47.29Z" id="Ray_of_Sun-13" data-name="Ray of Sun"/><path class="cls-1" d="M193.75 118.13c-1.5 0-2.92-.89-3.53-2.36l-24.27-58.55c-.81-1.95.12-4.18 2.07-4.99 1.94-.8 4.18.12 4.99 2.07l24.27 58.55a3.818 3.818 0 0 1-3.53 5.28Z" id="Ray_of_Sun-14" data-name="Ray of Sun"/><path class="cls-1" d="M146.06 151.59c-1.36 0-2.72-.52-3.75-1.55L73.25 81.18c-2.08-2.07-2.08-5.44-.01-7.52a5.311 5.311 0 0 1 7.52-.01l69.06 68.86c2.08 2.07 2.08 5.44.01 7.52a5.3 5.3 0 0 1-3.76 1.56Z" id="Ray_of_Sun-15" data-name="Ray of Sun"/><path class="cls-1" d="M114.18 197.88c-.48 0-.98-.09-1.45-.29l-58.6-24.13a3.816 3.816 0 1 1 2.9-7.06l58.6 24.13c1.95.8 2.88 3.03 2.08 4.98a3.822 3.822 0 0 1-3.53 2.36Z" id="Ray_of_Sun-16" data-name="Ray of Sun"/></g><path class="cls-1" d="M249.67 369.59c-31.85 0-61.78-12.36-84.3-34.83-22.6-22.54-35.04-52.55-35.04-84.51 0-65.95 53.68-119.75 119.65-119.93 31.89-.17 62.01 12.3 84.61 34.85 22.6 22.54 35.04 52.55 35.03 84.5 0 65.96-53.67 119.75-119.64 119.92h-.32ZM140.96 250.25c0 29.12 11.33 56.45 31.92 76.98 20.51 20.46 47.78 31.72 76.79 31.72h.29c60.12-.15 109.03-49.18 109.03-109.29 0-29.11-11.33-56.44-31.91-76.98-20.52-20.47-47.78-31.74-76.8-31.74H250c-60.12.17-109.03 49.2-109.04 109.3Z" id="Circle"/><path class="cls-1" d="M255.25 321.58c-7.5 0-14.81-1.27-21.76-3.78a3.817 3.817 0 0 1-2.29-4.89c.72-1.98 2.9-3.01 4.89-2.29 6.11 2.21 12.56 3.33 19.15 3.33 30.87-.1 56-25.29 56-56.15a3.82 3.82 0 1 1 7.64 0c0 35.06-28.54 63.67-63.62 63.78Z" id="Reflex_Smile" data-name="Reflex Smile"/></g></svg>