<svg id="Capa_1" data-name="Capa 1" xmlns="http://www.w3.org/2000/svg" viewBox="0 0 496.46 304.31"><defs><style>.cls-1{fill:#fbb858}</style></defs><g id="Sunset"><g id="Sea_Lines" data-name="Sea Lines"><path class="cls-1" d="M313.68 304.31H183.11a3.461 3.461 0 0 1 0-6.92h130.57a3.461 3.461 0 0 1 0 6.92Z" id="Line_1" data-name="Line 1"/><path class="cls-1" d="M372.01 264.27h-247.4a3.461 3.461 0 0 1 0-6.92h247.4a3.461 3.461 0 0 1 0 6.92Z" id="Line_2" data-name="Line 2"/><path class="cls-1" d="M493 223.07H299.73a3.461 3.461 0 0 1 0-6.92H493a3.461 3.461 0 0 1 0 6.92Z" id="Line_3_Right" data-name="Line 3 Right"/><path class="cls-1" d="M196.72 224.09H3.46a3.461 3.461 0 0 1 0-6.92h193.26a3.461 3.461 0 0 1 0 6.92Z" id="Line_3_Left" data-name="Line 3 Left"/></g><g id="Sun_Rays_Group" data-name="Sun Rays Group"><path class="cls-1" d="M247.91 82.96c-2.38 0-4.32-1.93-4.32-4.32l-.13-74.31c0-2.39 1.93-4.33 4.32-4.33 2.38 0 4.32 1.93 4.32 4.32l.13 74.31c0 2.39-1.93 4.33-4.31 4.33Z" id="Ray_of_Sun" data-name="Ray of Sun"/><path class="cls-1" d="M305.06 94.34c-.55 0-1.1-.11-1.64-.33a4.315 4.315 0 0 1-2.35-5.64l28.36-68.86a4.32 4.32 0 1 1 7.99 3.29l-28.36 68.86a4.329 4.329 0 0 1-4 2.68Z" id="Ray_of_Sun-2" data-name="Ray of Sun"/><path class="cls-1" d="M353.19 126.92c-1.1 0-2.21-.42-3.05-1.26a4.315 4.315 0 0 1-.01-6.11l52.92-53.11a4.315 4.315 0 0 1 6.11-.01c1.69 1.68 1.7 4.42.01 6.11l-52.92 53.11c-.84.85-1.95 1.27-3.06 1.27Z" id="Ray_of_Sun-3" data-name="Ray of Sun"/><path class="cls-1" d="M384.95 175.35c-1.69 0-3.3-1-3.99-2.66-.92-2.2.12-4.73 2.33-5.65l69.77-29.07c2.21-.92 4.74.13 5.65 2.33.92 2.2-.12 4.73-2.33 5.65l-69.77 29.07c-.54.23-1.11.33-1.66.33Z" id="Ray_of_Sun-4" data-name="Ray of Sun"/><path class="cls-1" d="M190.8 94.58c-1.69 0-3.3-1-3.99-2.66l-28.58-68.74c-.92-2.2.13-4.73 2.33-5.65a4.33 4.33 0 0 1 5.65 2.33l28.58 68.74c.92 2.2-.13 4.73-2.33 5.65-.54.22-1.11.33-1.66.33Z" id="Ray_of_Sun-5" data-name="Ray of Sun"/><path class="cls-1" d="M142.85 127.36c-1.1 0-2.21-.42-3.05-1.26L86.7 73.21a4.315 4.315 0 0 1-.01-6.11 4.315 4.315 0 0 1 6.11-.01l53.1 52.89c1.69 1.68 1.7 4.42.01 6.11-.84.85-1.95 1.27-3.06 1.27Z" id="Ray_of_Sun-6" data-name="Ray of Sun"/><path class="cls-1" d="M111.28 175.92c-.55 0-1.11-.11-1.64-.33l-69.86-28.77c-2.21-.91-3.26-3.43-2.35-5.64s3.44-3.26 5.64-2.35l69.86 28.77c2.21.91 3.26 3.43 2.35 5.64a4.329 4.329 0 0 1-4 2.68Z" id="Ray_of_Sun-7" data-name="Ray of Sun"/><path class="cls-1" d="M218.76 83.96c-1.11 0-2.1-.78-2.33-1.91L210 49.76c-.03-.16-.05-.31-.05-.46 0-1.11.78-2.11 1.91-2.33a2.38 2.38 0 0 1 2.8 1.87l6.43 32.29c.03.16.05.31.05.46 0 1.11-.78 2.11-1.91 2.33-.16.03-.31.05-.47.05Z" id="Ray_of_Sun-8" data-name="Ray of Sun"/><path class="cls-1" d="M277.07 83.84c-.15 0-.31-.02-.46-.05a2.372 2.372 0 0 1-1.87-2.79l6.38-32.31c.26-1.29 1.51-2.13 2.79-1.87 1.29.25 2.12 1.5 1.87 2.79l-6.38 32.31a2.39 2.39 0 0 1-2.33 1.92Z" id="Ray_of_Sun-9" data-name="Ray of Sun"/><path class="cls-1" d="M330.39 106.05c-.46 0-.93-.13-1.34-.42a2.377 2.377 0 0 1-.62-3.3l18.82-27.46a2.389 2.389 0 0 1 3.31-.62c1.08.74 1.36 2.22.62 3.3l-18.82 27.46a2.38 2.38 0 0 1-1.96 1.03Z" id="Ray_of_Sun-10" data-name="Ray of Sun"/><path class="cls-1" d="M370.85 146.68c-.8 0-1.57-.4-2.02-1.12a2.39 2.39 0 0 1 .76-3.28l28.76-17.9a2.37 2.37 0 0 1 3.27.76 2.39 2.39 0 0 1-.76 3.28l-28.76 17.9c-.39.24-.83.36-1.25.36Z" id="Ray_of_Sun-11" data-name="Ray of Sun"/><path class="cls-1" d="M393.02 201.25c-1.11 0-2.1-.78-2.33-1.91-.26-1.29.57-2.54 1.86-2.8l33.95-6.82c1.28-.25 2.54.58 2.8 1.86s-.57 2.54-1.86 2.8l-33.95 6.82c-.16.03-.32.05-.47.05Z" id="Ray_of_Sun-12" data-name="Ray of Sun"/><path class="cls-1" d="M103.3 201.84c-.15 0-.31-.02-.46-.05l-33.91-6.66a2.382 2.382 0 0 1-1.92-2.33c0-.15.02-.31.05-.46.25-1.29 1.5-2.12 2.79-1.88l33.91 6.66c1.13.22 1.92 1.22 1.92 2.33 0 .15-.02.31-.05.46a2.382 2.382 0 0 1-2.33 1.92Z" id="Ray_of_Sun-13" data-name="Ray of Sun"/><path class="cls-1" d="M124.37 148.54c-.46 0-.93-.13-1.34-.42l-27.9-19.13a2.385 2.385 0 0 1-.61-3.31 2.387 2.387 0 0 1 3.31-.62l27.9 19.13a2.385 2.385 0 0 1 .61 3.31 2.38 2.38 0 0 1-1.96 1.03Z" id="Ray_of_Sun-14" data-name="Ray of Sun"/><path class="cls-1" d="M165.19 106.63c-.77 0-1.52-.37-1.98-1.05l-18.53-27.61a2.384 2.384 0 0 1 .65-3.3 2.38 2.38 0 0 1 3.3.65l18.53 27.61a2.384 2.384 0 0 1-.65 3.3c-.41.27-.87.4-1.32.4Z" id="Ray_of_Sun-15" data-name="Ray of Sun"/></g><path class="cls-1" d="M138.27 217.49h-.09a4.316 4.316 0 0 1-4.23-4.41c1.27-61.57 52.42-111.76 114.04-111.88h.26c29.97 0 58.29 11.51 79.75 32.44 21.49 20.95 33.73 48.99 34.48 78.97a4.323 4.323 0 0 1-4.21 4.43c-2.33.04-4.37-1.83-4.43-4.21-1.41-56.83-48.76-102.97-105.6-102.97h-.23c-56.96.11-104.25 46.5-105.42 103.41a4.316 4.316 0 0 1-4.32 4.23Z" id="Sun_Circle" data-name="Sun Circle"/><path class="cls-1" d="M196.5 173.88c-.45 0-.91-.13-1.32-.4a2.38 2.38 0 0 1-.65-3.3c12.01-17.94 32.05-28.68 53.62-28.73h.12c21.56 0 41.63 10.7 53.7 28.64.73 1.09.44 2.57-.64 3.3-1.09.73-2.57.45-3.3-.64-11.19-16.63-29.78-26.54-49.76-26.54h-.11c-19.98.05-38.55 10-49.68 26.62-.46.68-1.21 1.05-1.98 1.05Z" id="Reflex_Smile" data-name="Reflex Smile"/></g></svg>